<?xml version="1.0" encoding="utf-8"?>
<!-- Generator: Adobe Illustrator 19.2.1, SVG Export Plug-In . SVG Version: 6.00 Build 0)  -->
<svg version="1.1" id="Layer_1" xmlns="http://www.w3.org/2000/svg" xmlns:xlink="http://www.w3.org/1999/xlink" x="0px" y="0px"
	 viewBox="0 0 32 32" style="enable-background:new 0 0 32 32;" xml:space="preserve">
<style type="text/css">
	.st0{fill:#E7E7E7;}
	.st1{opacity:0.5;}
	.st2{fill:#9B9B9B;}
	.st3{fill:url(#SVGID_1_);}
	.st4{fill:url(#SVGID_2_);}
	.st5{opacity:7.000000e-002;}
	.st6{opacity:0.15;}
	.st7{fill:none;}
	.st8{fill:url(#SVGID_3_);}
	.st9{fill:url(#SVGID_4_);}
	.st10{fill:url(#SVGID_5_);}
	.st11{fill:url(#SVGID_6_);}
	.st12{fill:url(#SVGID_7_);}
	.st13{fill:url(#SVGID_8_);}
	.st14{fill:url(#SVGID_9_);}
	.st15{fill:url(#SVGID_10_);}
	.st16{fill:url(#SVGID_11_);}
	.st17{fill:url(#SVGID_12_);}
</style>
<g>
	<g>
		<circle class="st0" cx="-232.1" cy="64" r="57.2"/>
		<g class="st1">
			<path class="st2" d="M-232.1,6.8c31.6,0,57.2,25.6,57.2,57.2s-25.6,57.2-57.2,57.2s-57.2-25.6-57.2-57.2S-263.7,6.8-232.1,6.8
				 M-232.1,5.8c-32.1,0-58.2,26.1-58.2,58.2s26.1,58.2,58.2,58.2S-174,96.1-174,64S-200.1,5.8-232.1,5.8L-232.1,5.8z"/>
		</g>
	</g>
	<g>
		<g class="st1">
			<linearGradient id="SVGID_1_" gradientUnits="userSpaceOnUse" x1="-232.125" y1="6.8333" x2="-232.125" y2="121.1667">
				<stop  offset="0" style="stop-color:#FFFFFF"/>
				<stop  offset="0.2054" style="stop-color:#F5F5F5"/>
				<stop  offset="0.559" style="stop-color:#EBEBEB"/>
				<stop  offset="1" style="stop-color:#E8E8E8"/>
			</linearGradient>
			<path class="st3" d="M-232.1,7.8c31,0,56.2,25.2,56.2,56.2s-25.2,56.2-56.2,56.2S-288.3,95-288.3,64S-263.1,7.8-232.1,7.8
				 M-232.1,6.8c-31.6,0-57.2,25.6-57.2,57.2s25.6,57.2,57.2,57.2S-175,95.6-175,64S-200.6,6.8-232.1,6.8L-232.1,6.8z"/>
		</g>
	</g>
	<g>
		<g class="st1">
			<linearGradient id="SVGID_2_" gradientUnits="userSpaceOnUse" x1="-232.125" y1="121.1667" x2="-232.125" y2="6.8333">
				<stop  offset="0" style="stop-color:#FFFFFF"/>
				<stop  offset="0.2054" style="stop-color:#F5F5F5"/>
				<stop  offset="0.559" style="stop-color:#EBEBEB"/>
				<stop  offset="1" style="stop-color:#E8E8E8"/>
			</linearGradient>
			<path class="st4" d="M-232.1,7.8c31,0,56.2,25.2,56.2,56.2s-25.2,56.2-56.2,56.2S-288.3,95-288.3,64S-263.1,7.8-232.1,7.8
				 M-232.1,6.8c-31.6,0-57.2,25.6-57.2,57.2s25.6,57.2,57.2,57.2S-175,95.6-175,64S-200.6,6.8-232.1,6.8L-232.1,6.8z"/>
		</g>
	</g>
</g>
<g>
	<g class="st5">
		<g>
			<polygon points="-213.8,51.8 -204.1,39 -208.1,22.7 -217,24.9 -231.1,31.5 -218.5,39.8 			"/>
		</g>
		<g>
			<path d="M-205.3,71.3l3.9,0.4l8-11.3l5.2-4.9l0.2-0.2c0,0-3.5-14.2-9.1-22.1l-7.7,7.6L-205.3,71.3z"/>
		</g>
		<g>
			<polygon points="-189.9,57.8 -185.5,59.9 -188,56 			"/>
		</g>
		<g>
			<polygon points="-191,59.2 -188.4,65 -185.5,60.5 -190.2,58.2 			"/>
		</g>
		<g>
			<polygon points="-193,60.9 -200.9,72 -192.7,72.5 -186.4,69.9 -191.7,59.4 			"/>
		</g>
		<g>
			<path d="M-232.3,68.1c8.4,3.5,26.2,3.3,26.2,3.3l0.7-29.8c0,0-9.2,12.1-12.8,18.1c-4.3,0.8-14.6-3.3-14.6-3.3l-5.9-6.7l-3.4,7.7
				C-241.9,57.4-235.5,65.5-232.3,68.1z"/>
		</g>
		<g>
			<polygon points="-273.5,60.7 -265.5,57.3 -265.7,52.6 			"/>
		</g>
		<g>
			<polygon points="-237.9,49.7 -232.2,55.9 -226.7,53.8 -231.7,49.1 			"/>
		</g>
		<g>
			<path d="M-218.6,59.2c0.5-3.3-1.6-6.1-2.6-7.4l-10.2,4.6C-231.4,56.4-222.5,59.6-218.6,59.2z"/>
		</g>
		<g>
			<polygon points="-214.2,52.5 -219,40.4 -217.1,57 			"/>
		</g>
		<g>
			<path d="M-226,45.1c0,0,7.5,7.4,8.2,12.2c-0.3-5.7-1.1-15.1-1.9-16.4L-226,45.1z"/>
		</g>
		<g>
			<path d="M-217.8,57.2c0,0.3,0,0.6,0,0.9C-217.7,57.9-217.8,57.6-217.8,57.2z"/>
		</g>
		<g>
			<path d="M-242.5,57l3.9-8l7.2-0.4l5.3,4.8l4.5-2.2c0,0-6.6-7.6-7.5-8c-0.9-0.4-6.2,1.2-12.1,2.6C-244.6,52-242.5,57-242.5,57z"/>
		</g>
		<g>
			<polygon points="-229.2,42.5 -227,44.5 -228.4,42.1 -241.6,37.3 -241.2,45.1 			"/>
		</g>
		<g>
			<path d="M-242.2,37.4l-0.2,0.6l-17.6,15.4l9.6,19.2c-0.1-17.9,8.5-27.2,8.5-27.2L-242.2,37.4z"/>
		</g>
		<g>
			<path d="M-244.1,93.3c0,0,0.7,4,1.4,10.4c36.9-2.5,47.5,0,47.5,0l-11.5-15.1C-213.7,95.2-244.1,93.3-244.1,93.3z"/>
		</g>
		<g>
			<path d="M-206.1,72.1c-17.2,0.9-26.8-3.1-26.8-3.1s-6-6.3-9-9.8c-3.3-4.3-0.9-11.4-0.9-11.4c-7.2,10.4-6.8,24.1-7,25.5
				c-0.1,1.4,3.6,8.1,7.4,16.4c7.7,7.1,33,1,34.1-0.7c2-0.8,22-18.6,22-18.6l-6.5,2.9C-192.8,73.3-197.1,73.1-206.1,72.1z"/>
		</g>
		<g>
			<g>
				<path d="M-239.8,26.6c-2.3-1.1-23.6,2.7-23.6,2.7l-2.6,10l1.3,18.4l-8.7,3.7l12.4-3l0.6-5.6l18.8-16.3l13.8,5.4c0,0,1,2,1.5,2.7
					c0.4-0.1,7-4.5,7-4.5S-237.5,27.7-239.8,26.6z"/>
			</g>
			<g>
				<path d="M-261.2,58.9l-13,3.1c-1.9,1.8-4.4,20.2-5.5,25c10.1,0.8,31.1,7.6,31.1,7.6s0,0,3.6-1.3c-0.8-2.6-14.3-15.7-15.4-18.1
					S-261.2,58.9-261.2,58.9z"/>
			</g>
		</g>
		<g>
			<path d="M-260.3,74.2c0.7,1.9,16.1,18.2,16.1,18.2s3.9,0.2,8.5,0.6c-3.4-0.5-7.1-2.4-7.5-3c-0.5-0.6-17.1-35.4-17.1-35.4
				S-261,72.3-260.3,74.2z"/>
		</g>
	</g>
	<g class="st6">
		<g>
			<polygon points="-213.8,50.8 -204.1,38 -208.1,21.7 -217,23.9 -231.1,30.5 -218.5,38.8 			"/>
		</g>
		<g>
			<path d="M-205.3,70.3l3.9,0.4l8-11.3l5.2-4.9l0.2-0.2c0,0-3.5-14.2-9.1-22.1l-7.7,7.6L-205.3,70.3z"/>
		</g>
		<g>
			<polygon points="-189.9,56.8 -185.5,58.9 -188,55 			"/>
		</g>
		<g>
			<polygon points="-191,58.2 -188.4,64 -185.5,59.5 -190.2,57.2 			"/>
		</g>
		<g>
			<polygon points="-193,59.9 -200.9,71 -192.7,71.5 -186.4,68.9 -191.7,58.4 			"/>
		</g>
		<g>
			<path d="M-232.3,67.1c8.4,3.5,26.2,3.3,26.2,3.3l0.7-29.8c0,0-9.2,12.1-12.8,18.1c-4.3,0.8-14.6-3.3-14.6-3.3l-5.9-6.7l-3.4,7.7
				C-241.9,56.4-235.5,64.5-232.3,67.1z"/>
		</g>
		<g>
			<polygon points="-273.5,59.7 -265.5,56.3 -265.7,51.6 			"/>
		</g>
		<g>
			<polygon points="-237.9,48.7 -232.2,54.9 -226.7,52.8 -231.7,48.1 			"/>
		</g>
		<g>
			<path d="M-218.6,58.2c0.5-3.3-1.6-6.1-2.6-7.4l-10.2,4.6C-231.4,55.4-222.5,58.6-218.6,58.2z"/>
		</g>
		<g>
			<polygon points="-214.2,51.5 -219,39.4 -217.1,56 			"/>
		</g>
		<g>
			<path d="M-226,44.1c0,0,7.5,7.4,8.2,12.2c-0.3-5.7-1.1-15.1-1.9-16.4L-226,44.1z"/>
		</g>
		<g>
			<path d="M-217.8,56.2c0,0.3,0,0.6,0,0.9C-217.7,56.9-217.8,56.6-217.8,56.2z"/>
		</g>
		<g>
			<path d="M-242.5,56l3.9-8l7.2-0.4l5.3,4.8l4.5-2.2c0,0-6.6-7.6-7.5-8c-0.9-0.4-6.2,1.2-12.1,2.6C-244.6,51-242.5,56-242.5,56z"/>
		</g>
		<g>
			<polygon points="-229.2,41.5 -227,43.5 -228.4,41.1 -241.6,36.3 -241.2,44.1 			"/>
		</g>
		<g>
			<path d="M-242.2,36.4l-0.2,0.6l-17.6,15.4l9.6,19.2c-0.1-17.9,8.5-27.2,8.5-27.2L-242.2,36.4z"/>
		</g>
		<g>
			<path d="M-244.1,92.3c0,0,0.7,4,1.4,10.4c36.9-2.5,47.5,0,47.5,0l-11.5-15.1C-213.7,94.2-244.1,92.3-244.1,92.3z"/>
		</g>
		<g>
			<path d="M-206.1,71.1c-17.2,0.9-26.8-3.1-26.8-3.1s-6-6.3-9-9.8c-3.3-4.3-0.9-11.4-0.9-11.4c-7.2,10.4-6.8,24.1-7,25.5
				c-0.1,1.4,3.6,8.1,7.4,16.4c7.7,7.1,33,1,34.1-0.7c2-0.8,22-18.6,22-18.6l-6.5,2.9C-192.8,72.3-197.1,72.1-206.1,71.1z"/>
		</g>
		<g>
			<g>
				<path d="M-239.8,25.6c-2.3-1.1-23.6,2.7-23.6,2.7l-2.6,10l1.3,18.4l-8.7,3.7l12.4-3l0.6-5.6l18.8-16.3l13.8,5.4c0,0,1,2,1.5,2.7
					c0.4-0.1,7-4.5,7-4.5S-237.5,26.7-239.8,25.6z"/>
			</g>
			<g>
				<path d="M-261.2,57.9l-13,3.1c-1.9,1.8-4.4,20.2-5.5,25c10.1,0.8,31.1,7.6,31.1,7.6s0,0,3.6-1.3c-0.8-2.6-14.3-15.7-15.4-18.1
					S-261.2,57.9-261.2,57.9z"/>
			</g>
		</g>
		<g>
			<path d="M-260.3,73.2c0.7,1.9,16.1,18.2,16.1,18.2s3.9,0.2,8.5,0.6c-3.4-0.5-7.1-2.4-7.5-3c-0.5-0.6-17.1-35.4-17.1-35.4
				S-261,71.3-260.3,73.2z"/>
		</g>
	</g>
	<g>
		<g>
			<polygon points="-218.3,37.7 -230.6,29.5 -216.9,23.1 -208.2,21 -204.3,37 -213.7,49.3 			"/>
			<path class="st0" d="M-208.4,21.3l3.8,15.6l-9,11.8l-4.4-11.1l-0.1-0.1l-0.1-0.1l-11.8-7.9l13.2-6.2L-208.4,21.3 M-208.1,20.7
				l-8.9,2.1l-14.1,6.6l12.6,8.4l4.7,11.9l9.7-12.7L-208.1,20.7L-208.1,20.7z"/>
		</g>
		<g>
			<path d="M-205.1,69.1l0.5-30.2l7.4-7.3c5.1,7.4,8.5,20.2,8.8,21.6l-5.3,5l-8,11.2L-205.1,69.1z"/>
			<path class="st0" d="M-197.2,32c4.8,7.2,8.1,19.2,8.6,21.2l0,0l-5.2,4.9l0,0l0,0l-7.8,11l-3.1-0.3l0.5-29.8L-197.2,32
				 M-197.1,31.2l-7.7,7.6l-0.5,30.5l3.9,0.4l8-11.3l5.2-4.9l0.2-0.2C-188,53.3-191.6,39.1-197.1,31.2L-197.1,31.2z"/>
		</g>
		<g>
			<polygon points="-189.5,55.7 -188.1,54.4 -186.2,57.3 			"/>
			<path class="st0" d="M-188.1,54.8l1.2,1.9l-2.2-1L-188.1,54.8 M-188,54l-1.9,1.7l4.5,2.1L-188,54L-188,54z"/>
		</g>
		<g>
			<polygon points="-190.8,57.3 -190.2,56.5 -185.8,58.6 -188.3,62.4 			"/>
			<path class="st0" d="M-190.1,56.8l3.9,1.9l-2.1,3.2l-2.2-4.6L-190.1,56.8 M-190.2,56.2l-0.8,1l2.7,5.7l2.9-4.5L-190.2,56.2
				L-190.2,56.2z"/>
		</g>
		<g>
			<polygon points="-200.4,69.7 -192.8,59 -191.7,57.8 -186.7,67.7 -192.7,70.2 			"/>
			<path class="st0" d="M-191.8,58.3l4.7,9.3l-5.7,2.4l-7.2-0.5l7.4-10.3L-191.8,58.3 M-191.7,57.4l-1.3,1.5l-7.9,11.1l8.2,0.5
				l6.3-2.6L-191.7,57.4L-191.7,57.4z"/>
		</g>
		<g>
			<path d="M-206.4,69.2c-3,0-18.2-0.2-25.8-3.3c-2.9-2.3-8.6-9.5-9.4-10.5l3.2-7.2l5.6,6.4l0.1,0c0.4,0.1,8.7,3.4,13.4,3.4
				c0.5,0,0.9,0,1.3-0.1l0.1,0l0.1-0.1c3-5.1,10.4-14.9,12.3-17.4l-0.7,28.8H-206.4z"/>
			<path class="st0" d="M-205.9,41.1l-0.7,27.8c-3.2,0-18-0.2-25.5-3.2c-2.9-2.3-8.2-9-9.3-10.4l2.9-6.7l5.3,6.1l0.1,0.1l0.1,0
				c0.4,0.1,8.7,3.4,13.5,3.4c0.5,0,0.9,0,1.3-0.1l0.2,0l0.1-0.2C-214.9,53.1-208.3,44.4-205.9,41.1 M-205.3,39.6
				c0,0-9.2,12.1-12.8,18.1c-0.4,0.1-0.8,0.1-1.2,0.1c-4.7,0-13.3-3.4-13.3-3.4l-5.9-6.7l-3.4,7.7c0,0,6.4,8.1,9.6,10.7
				c7.7,3.2,23.2,3.3,25.9,3.3c0.3,0,0.4,0,0.4,0L-205.3,39.6L-205.3,39.6z"/>
		</g>
		<g>
			<polygon points="-265.9,51.2 -265.7,55.1 -272.5,58 			"/>
			<path class="st0" d="M-266.1,51.7l0.2,3.2l-5.5,2.3L-266.1,51.7 M-265.7,50.6l-7.8,8.1l8.1-3.4L-265.7,50.6L-265.7,50.6z"/>
		</g>
		<g>
			<polygon points="-237.4,47.9 -231.8,47.3 -227.2,51.7 -232.1,53.6 			"/>
			<path class="st0" d="M-231.9,47.6l4.2,4l-4.4,1.7l-4.8-5.2L-231.9,47.6 M-231.7,47.1l-6.2,0.6l5.8,6.2l5.5-2.1L-231.7,47.1
				L-231.7,47.1z"/>
		</g>
		<g>
			<path d="M-219.3,57c-3.4,0-9.5-2-11.4-2.6l9.4-4.3c0.8,1.1,2.8,3.8,2.5,6.9C-219,57-219.1,57-219.3,57
				C-219.3,57-219.3,57-219.3,57z"/>
			<path class="st0" d="M-221.4,50.4c0.8,1.1,2.5,3.6,2.3,6.3c-0.1,0-0.2,0-0.3,0c-3.1,0-8.4-1.6-10.8-2.4L-221.4,50.4 M-221.2,49.8
				l-10.2,4.6c0,0,7.9,2.8,12.1,2.8c0.2,0,0.5,0,0.7,0C-218.1,53.9-220.2,51-221.2,49.8L-221.2,49.8z"/>
		</g>
		<g>
			<polygon points="-218.5,40.2 -214.5,50.5 -216.9,54.3 			"/>
			<path class="st0" d="M-218,42.1l3.3,8.3l-2,3.1L-218,42.1 M-219,38.4l1.9,16.7l2.9-4.6L-219,38.4L-219,38.4z"/>
		</g>
		<g>
			<path d="M-218.2,53.1c-1.7-4.1-6.3-8.9-7.4-10l5.8-3.9C-219.2,40.9-218.5,47.6-218.2,53.1z"/>
			<path class="st0" d="M-219.9,39.6c0.5,1.8,1.1,7.1,1.4,12.2c-1.9-3.6-5.4-7.4-6.7-8.7L-219.9,39.6 M-219.7,38.8l-6.3,4.2
				c0,0,7.5,7.4,8.2,12.2C-218.1,49.5-219,40.1-219.7,38.8L-219.7,38.8z"/>
		</g>
		<g>
			<path d="M-217.8,55.2c0,0.3,0,0.6,0,0.9C-217.7,55.9-217.8,55.6-217.8,55.2z"/>
			<path class="st0" d="M-217.8,55.2c0,0.3,0,0.6,0,0.9C-217.7,55.9-217.8,55.6-217.8,55.2L-217.8,55.2z"/>
		</g>
		<g>
			<path d="M-242.5,54.4c-0.4-1.5-1.2-5.6,1.3-10.3c1.8-0.4,3.5-0.8,5-1.2c3.1-0.8,5.5-1.4,6.5-1.4c0.2,0,0.3,0,0.3,0
				c0.6,0.2,4.6,4.7,7.2,7.7l-4,2l-5.2-4.8l-7.4,0.4L-242.5,54.4z"/>
			<path class="st0" d="M-229.5,41.8c0.1,0,0.2,0,0.2,0c0,0,0,0,0,0c0.6,0.3,3.9,3.9,6.9,7.4l-3.6,1.8l-5-4.6l-0.2-0.1l-0.2,0
				l-7.2,0.4l-0.3,0l-0.1,0.3l-3.4,6.8c-0.4-1.8-0.7-5.3,1.4-9.3c1.7-0.4,3.4-0.8,4.9-1.2C-233.1,42.4-230.5,41.8-229.5,41.8
				 M-229.5,41.3c-1.6,0-6.4,1.4-11.8,2.6c-3.4,6.1-1.2,11.1-1.2,11.1l3.9-8l7.2-0.4l5.3,4.8l4.5-2.2c0,0-6.6-7.6-7.5-8
				C-229.2,41.3-229.4,41.3-229.5,41.3L-229.5,41.3z"/>
		</g>
		<g>
			<polygon points="-241.4,35.6 -228.6,40.3 -228.2,41 -229.1,40.2 -241,42.8 			"/>
			<path class="st0" d="M-241.1,36l11.2,4.1l-10.8,2.3L-241.1,36 M-241.6,35.3l0.4,7.8l12-2.6l2.2,2l-1.5-2.4L-241.6,35.3
				L-241.6,35.3z"/>
		</g>
		<g>
			<path d="M-259.8,51.4l17.3-15.1l0.3,6.9c-0.8,0.9-8.3,10-8.5,26.3L-259.8,51.4z"/>
			<path class="st0" d="M-242.7,36.9l0.3,6.2c-1.1,1.3-8,10-8.5,25.3l-8.5-17L-242.7,36.9 M-242.2,35.4l-0.2,0.6l-17.6,15.4
				l9.6,19.2c-0.1-17.9,8.5-27.2,8.5-27.2L-242.2,35.4L-242.2,35.4z"/>
		</g>
		<g>
			<path d="M-242.5,101.4c-0.6-5.2-1.2-8.8-1.4-9.8c1,0.1,4.5,0.2,9,0.2c10.3,0,23.5-0.9,28.1-4.9l10.9,14.4c-1.7-0.3-7.1-1-18.2-1
				C-222.1,100.3-231.7,100.7-242.5,101.4z"/>
			<path class="st0" d="M-206.8,87.3l10.4,13.7c-2.2-0.3-7.5-0.9-17.6-0.9c-8.1,0-17.6,0.4-28.3,1.1c-0.5-4.6-1.1-8-1.3-9.3
				c1.3,0.1,4.6,0.2,8.7,0.2C-224.7,92.1-211.6,91.2-206.8,87.3 M-206.7,86.6c-4.5,4.3-18.6,5-28.2,5c-5.3,0-9.3-0.2-9.3-0.2
				s0.7,4,1.4,10.4c12.3-0.8,21.7-1.1,28.7-1.1c14.1,0,18.8,1.1,18.8,1.1L-206.7,86.6L-206.7,86.6z"/>
		</g>
		<g>
			<path d="M-229.6,90.8c-6,0-10.3-1.1-12.7-3.3c-1.4-3-2.8-5.9-4-8.4c-1.9-3.9-3.4-7-3.4-7.8c0-0.1,0-0.4,0-0.9
				c0.3-9.4,2.3-17.2,6.1-23.2c-0.5,2.4-1.1,7,1.4,10.2c3,3.4,9,9.7,9,9.8l0,0l0,0c0.1,0,8,3.3,22.1,3.3c1.6,0,3.2,0,4.8-0.1
				c8.9,1,13.2,1.1,13.3,1.1l0.1,0l5-2.3c-7.2,6.3-19.2,16.8-20.7,17.4l-0.1,0l0,0.1C-209.1,87.7-219.7,90.8-229.6,90.8z"/>
			<path class="st0" d="M-244,48.5c-0.4,2.6-0.4,6.3,1.7,9c3,3.4,9,9.7,9,9.8l0.1,0.1l0.1,0c0.3,0.1,8.1,3.3,22.2,3.3
				c1.6,0,3.2,0,4.8-0.1c8.9,1,13.2,1.1,13.3,1.1l0.1,0l0.1,0l3.4-1.6c-7.9,6.9-18.1,15.8-19.3,16.3l-0.1,0.1l-0.1,0.1
				c-0.7,0.9-11.2,3.9-20.8,3.9c-5.8,0-10.1-1.1-12.5-3.2c-1.4-3.1-2.8-5.9-4-8.4c-1.8-3.6-3.4-6.9-3.3-7.6c0-0.2,0-0.5,0-0.9
				C-249,61.7-247.3,54.3-244,48.5 M-242.9,45.8c-7.2,10.4-6.8,24.1-7,25.5c-0.1,1.4,3.6,8.1,7.4,16.4c2.7,2.5,7.6,3.4,12.9,3.4
				c9.7,0,20.5-3,21.2-4.1c2-0.8,22-18.6,22-18.6l-6.5,2.9c0,0-4.3-0.1-13.3-1.1c-1.7,0.1-3.3,0.1-4.8,0.1c-14.2,0-22-3.3-22-3.3
				s-6-6.3-9-9.8C-245.3,52.9-242.9,45.8-242.9,45.8L-242.9,45.8z"/>
		</g>
		<g>
			<g>
				<path d="M-264.5,55.8l-1.3-18.6l2.6-9.7c1.7-0.3,16.3-2.8,21.7-2.8c1.1,0,1.5,0.1,1.7,0.2c2.1,1,17.7,11.6,20.1,13.3
					c-2.3,1.5-5.7,3.7-6.5,4.2c-0.5-0.8-1.4-2.5-1.4-2.5l0-0.1l-14-5.5l-19,16.5l-0.6,5.5l-9.3,2.3L-264.5,55.8z"/>
				<path class="st0" d="M-241.6,24.8c1.1,0,1.5,0.1,1.6,0.2c2,1,16.5,10.9,19.7,13c-2.1,1.4-5,3.3-5.9,3.9
					c-0.5-0.8-1.2-2.3-1.2-2.3l-0.1-0.2l-0.2-0.1l-13.8-5.4l-0.3-0.1l-0.2,0.2l-18.8,16.3l-0.1,0.1l0,0.2l-0.6,5.2l-6.2,1.5l3.2-1.3
					l0.3-0.1l0-0.4l-1.3-18.4l2.5-9.6C-260.8,27.3-246.8,24.8-241.6,24.8 M-241.6,24.3c-5.7,0-21.9,2.9-21.9,2.9l-2.6,10l1.3,18.4
					l-8.7,3.7l12.4-3l0.6-5.6l18.8-16.3l13.8,5.4c0,0,1,2,1.5,2.7c0.4-0.1,7-4.5,7-4.5s-18.1-12.3-20.4-13.5
					C-240.1,24.4-240.7,24.3-241.6,24.3L-241.6,24.3z"/>
			</g>
			<g>
				<path d="M-248.6,92.4c-1.4-0.5-20.9-6.7-30.8-7.5c0.3-1.5,0.8-4.2,1.3-7.2c1.2-6.8,2.8-16,4-17.4l12.6-3.1
					c0,2.2-0.3,13.9,0.8,16.1c0.5,1.1,3.4,4.2,6.7,7.8c3.7,4,7.8,8.4,8.6,10L-248.6,92.4z"/>
				<path class="st0" d="M-261.7,57.6c-0.1,3-0.2,13.7,0.8,15.9c0.5,1.1,3.4,4.2,6.8,7.8c3.3,3.6,7.4,8,8.4,9.7l-3,1
					c-1.9-0.6-20.7-6.6-30.5-7.5c0.3-1.6,0.8-4.1,1.3-6.9c1.1-6.3,2.7-15.7,3.9-17.2L-261.7,57.6 M-261.2,56.9l-13,3.1
					c-1.9,1.8-4.4,20.2-5.5,25c10.1,0.8,31.1,7.6,31.1,7.6s0,0,3.6-1.3c-0.8-2.6-14.3-15.7-15.4-18.1S-261.2,56.9-261.2,56.9
					L-261.2,56.9z"/>
			</g>
		</g>
		<g>
			<path d="M-238.7,90.5c-2.7-0.2-4.8-0.3-5.3-0.4c-5.4-5.6-15.5-16.6-16-18.1c-0.5-1.4-0.3-12.2,0-18.5c3,6.3,16.3,34,16.7,34.6
				C-243,88.7-241,89.8-238.7,90.5z"/>
			<path class="st0" d="M-259.9,54.7c4.1,8.5,15.9,33.2,16.3,33.7c0.3,0.4,1.5,1.1,3.1,1.8c-1.7-0.1-3-0.2-3.5-0.2
				c-6.2-6.5-15.4-16.6-15.9-17.9C-260.3,70.8-260.1,61.6-259.9,54.7 M-260.3,52.6c0,0-0.7,17.7,0,19.6c0.7,1.9,16.1,18.2,16.1,18.2
				s3.9,0.2,8.5,0.6c-3.4-0.5-7.1-2.4-7.5-3C-243.6,87.5-260.3,52.6-260.3,52.6L-260.3,52.6z"/>
		</g>
	</g>
</g>
<line class="st7" x1="-274.1" y1="59.6" x2="-260.9" y2="56.6"/>
<line class="st7" x1="-271.1" y1="51.7" x2="-271.1" y2="51.7"/>
<g>
	<g>
		<circle class="st0" cx="-116.1" cy="32" r="28.6"/>
		<g class="st1">
			<path class="st2" d="M-116.1,3.4c15.8,0,28.6,12.8,28.6,28.6s-12.8,28.6-28.6,28.6s-28.6-12.8-28.6-28.6S-131.9,3.4-116.1,3.4
				 M-116.1,2.4c-16.3,0-29.6,13.3-29.6,29.6s13.3,29.6,29.6,29.6S-86.5,48.3-86.5,32S-99.8,2.4-116.1,2.4L-116.1,2.4z"/>
		</g>
	</g>
	<g>
		<g class="st1">
			<linearGradient id="SVGID_3_" gradientUnits="userSpaceOnUse" x1="-116.125" y1="3.4167" x2="-116.125" y2="60.5833">
				<stop  offset="0" style="stop-color:#FFFFFF"/>
				<stop  offset="0.2054" style="stop-color:#F5F5F5"/>
				<stop  offset="0.559" style="stop-color:#EBEBEB"/>
				<stop  offset="1" style="stop-color:#E8E8E8"/>
			</linearGradient>
			<path class="st8" d="M-116.1,4.4c15.2,0,27.6,12.4,27.6,27.6s-12.4,27.6-27.6,27.6s-27.6-12.4-27.6-27.6S-131.3,4.4-116.1,4.4
				 M-116.1,3.4c-15.8,0-28.6,12.8-28.6,28.6s12.8,28.6,28.6,28.6S-87.5,47.8-87.5,32S-100.3,3.4-116.1,3.4L-116.1,3.4z"/>
		</g>
	</g>
	<g>
		<g class="st1">
			<linearGradient id="SVGID_4_" gradientUnits="userSpaceOnUse" x1="-116.125" y1="60.5833" x2="-116.125" y2="3.4167">
				<stop  offset="0" style="stop-color:#FFFFFF"/>
				<stop  offset="0.2054" style="stop-color:#F5F5F5"/>
				<stop  offset="0.559" style="stop-color:#EBEBEB"/>
				<stop  offset="1" style="stop-color:#E8E8E8"/>
			</linearGradient>
			<path class="st9" d="M-116.1,4.4c15.2,0,27.6,12.4,27.6,27.6s-12.4,27.6-27.6,27.6s-27.6-12.4-27.6-27.6S-131.3,4.4-116.1,4.4
				 M-116.1,3.4c-15.8,0-28.6,12.8-28.6,28.6s12.8,28.6,28.6,28.6S-87.5,47.8-87.5,32S-100.3,3.4-116.1,3.4L-116.1,3.4z"/>
		</g>
	</g>
</g>
<g>
	<g class="st5">
		<g>
			<polygon points="-106.9,25.9 -102.1,19.5 -104.1,11.4 -108.6,12.4 -115.6,15.7 -109.3,19.9 			"/>
		</g>
		<g>
			<path d="M-102.7,35.7l1.9,0.2l4-5.6l2.6-2.5l0.1-0.1c0,0-1.8-7.1-4.5-11.1l-3.8,3.8L-102.7,35.7z"/>
		</g>
		<g>
			<polygon points="-96.6,30.5 -100.5,36 -96.4,36.2 -93.3,34.9 -95.9,29.7 			"/>
		</g>
		<g>
			<path d="M-116.2,34c4.2,1.7,13.1,1.7,13.1,1.7l0.4-14.9c0,0-4.6,6-6.4,9c-2.1,0.4-7.3-1.6-7.3-1.6l-2.9-3.3l-1.7,3.8
				C-121,28.7-117.8,32.8-116.2,34z"/>
		</g>
		<g>
			<polygon points="-119,24.8 -116.1,27.9 -113.4,26.9 -115.9,24.5 			"/>
		</g>
		<g>
			<path d="M-109.4,29.6c0.2-1.6-0.8-3.1-1.3-3.7l-5.1,2.3C-115.8,28.2-111.3,29.8-109.4,29.6z"/>
		</g>
		<g>
			<polygon points="-107.2,26.2 -109.5,20.2 -108.6,28.5 			"/>
		</g>
		<g>
			<path d="M-113,22.5c0,0,3.7,3.7,4.1,6.1c-0.1-2.9-0.6-7.6-0.9-8.2L-113,22.5z"/>
		</g>
		<g>
			<path d="M-109,28.6c0,0.2,0,0.3,0,0.5C-108.9,28.9-108.9,28.8-109,28.6z"/>
		</g>
		<g>
			<path d="M-121.3,28.5l2-4l3.6-0.2l2.6,2.4l2.2-1.1c0,0-3.3-3.8-3.7-4c-0.5-0.2-3.1,0.6-6.1,1.3C-122.4,26-121.3,28.5-121.3,28.5z
				"/>
		</g>
		<g>
			<polygon points="-114.6,21.2 -113.5,22.3 -114.3,21.1 -120.9,18.6 -120.7,22.5 			"/>
		</g>
		<g>
			<path d="M-121.2,18.7l-0.1,0.3l-8.8,7.7l4.8,9.6c0-8.9,4.3-13.6,4.3-13.6L-121.2,18.7z"/>
		</g>
		<g>
			<path d="M-122.1,46.7c0,0,0.4,2,0.7,5.2c18.5-1.3,23.8,0,23.8,0l-5.8-7.6C-106.9,47.6-122.1,46.7-122.1,46.7z"/>
		</g>
		<g>
			<path d="M-103.1,36.1c-8.6,0.4-13.4-1.6-13.4-1.6s-3-3.1-4.5-4.9c-1.7-2.1-0.5-5.7-0.5-5.7c-3.6,5.2-3.4,12.1-3.5,12.7
				c-0.1,0.7,1.8,4,3.7,8.2c3.9,3.6,16.5,0.5,17-0.4c1-0.4,11-9.3,11-9.3l-3.2,1.5C-96.5,36.6-98.6,36.6-103.1,36.1z"/>
		</g>
		<g>
			<g>
				<path d="M-120,13.3c-1.1-0.6-11.8,1.3-11.8,1.3l-1.3,5l0.6,9.2l-4.4,1.9l6.2-1.5l0.3-2.8l9.4-8.1l6.9,2.7c0,0,0.5,1,0.8,1.4
					c0.2-0.1,3.5-2.3,3.5-2.3S-118.8,13.8-120,13.3z"/>
			</g>
			<g>
				<path d="M-130.7,29.5l-6.5,1.6c-0.9,0.9-2.2,10.1-2.8,12.5c5.1,0.4,15.5,3.8,15.5,3.8s0,0,1.8-0.6c-0.4-1.3-7.1-7.9-7.7-9
					S-130.7,29.5-130.7,29.5z"/>
			</g>
		</g>
		<g>
			<path d="M-130.2,37.1c0.3,1,8.1,9.1,8.1,9.1s1.9,0.1,4.3,0.3c-1.7-0.3-3.5-1.2-3.8-1.5c-0.2-0.3-8.6-17.7-8.6-17.7
				S-130.6,36.1-130.2,37.1z"/>
		</g>
	</g>
	<g class="st6">
		<g>
			<polygon points="-106.9,25.4 -102.1,19 -104.1,10.9 -108.6,11.9 -115.6,15.2 -109.3,19.4 			"/>
		</g>
		<g>
			<path d="M-102.7,35.2l1.9,0.2l4-5.6l2.6-2.5l0.1-0.1c0,0-1.8-7.1-4.5-11.1l-3.8,3.8L-102.7,35.2z"/>
		</g>
		<g>
			<polygon points="-96.6,30 -100.5,35.5 -96.4,35.7 -93.3,34.4 -95.9,29.2 			"/>
		</g>
		<g>
			<path d="M-116.2,33.5c4.2,1.7,13.1,1.7,13.1,1.7l0.4-14.9c0,0-4.6,6-6.4,9c-2.1,0.4-7.3-1.6-7.3-1.6l-2.9-3.3l-1.7,3.8
				C-121,28.2-117.8,32.3-116.2,33.5z"/>
		</g>
		<g>
			<polygon points="-119,24.3 -116.1,27.4 -113.4,26.4 -115.9,24 			"/>
		</g>
		<g>
			<path d="M-109.4,29.1c0.2-1.6-0.8-3.1-1.3-3.7l-5.1,2.3C-115.8,27.7-111.3,29.3-109.4,29.1z"/>
		</g>
		<g>
			<polygon points="-107.2,25.7 -109.5,19.7 -108.6,28 			"/>
		</g>
		<g>
			<path d="M-113,22c0,0,3.7,3.7,4.1,6.1c-0.1-2.9-0.6-7.6-0.9-8.2L-113,22z"/>
		</g>
		<g>
			<path d="M-109,28.1c0,0.2,0,0.3,0,0.5C-108.9,28.4-108.9,28.3-109,28.1z"/>
		</g>
		<g>
			<path d="M-121.3,28l2-4l3.6-0.2l2.6,2.4l2.2-1.1c0,0-3.3-3.8-3.7-4c-0.5-0.2-3.1,0.6-6.1,1.3C-122.4,25.5-121.3,28-121.3,28z"/>
		</g>
		<g>
			<polygon points="-114.6,20.7 -113.5,21.8 -114.3,20.6 -120.9,18.1 -120.7,22 			"/>
		</g>
		<g>
			<path d="M-121.2,18.2l-0.1,0.3l-8.8,7.7l4.8,9.6c0-8.9,4.3-13.6,4.3-13.6L-121.2,18.2z"/>
		</g>
		<g>
			<path d="M-122.1,46.2c0,0,0.4,2,0.7,5.2c18.5-1.3,23.8,0,23.8,0l-5.8-7.6C-106.9,47.1-122.1,46.2-122.1,46.2z"/>
		</g>
		<g>
			<path d="M-103.1,35.6c-8.6,0.4-13.4-1.6-13.4-1.6s-3-3.1-4.5-4.9c-1.7-2.1-0.5-5.7-0.5-5.7c-3.6,5.2-3.4,12.1-3.5,12.7
				c-0.1,0.7,1.8,4,3.7,8.2c3.9,3.6,16.5,0.5,17-0.4c1-0.4,11-9.3,11-9.3l-3.2,1.5C-96.5,36.1-98.6,36.1-103.1,35.6z"/>
		</g>
		<g>
			<g>
				<path d="M-120,12.8c-1.1-0.6-11.8,1.3-11.8,1.3l-1.3,5l0.6,9.2l-4.4,1.9l6.2-1.5l0.3-2.8l9.4-8.1l6.9,2.7c0,0,0.5,1,0.8,1.4
					c0.2-0.1,3.5-2.3,3.5-2.3S-118.8,13.3-120,12.8z"/>
			</g>
			<g>
				<path d="M-130.7,29l-6.5,1.6c-0.9,0.9-2.2,10.1-2.8,12.5c5.1,0.4,15.5,3.8,15.5,3.8s0,0,1.8-0.6c-0.4-1.3-7.1-7.9-7.7-9
					S-130.7,29-130.7,29z"/>
			</g>
		</g>
		<g>
			<path d="M-130.2,36.6c0.3,1,8.1,9.1,8.1,9.1s1.9,0.1,4.3,0.3c-1.7-0.3-3.5-1.2-3.8-1.5c-0.2-0.3-8.6-17.7-8.6-17.7
				S-130.6,35.6-130.2,36.6z"/>
		</g>
	</g>
	<g>
		<g>
			<polygon points="-109.1,18.7 -115.1,14.8 -108.5,11.7 -104.3,10.7 -102.4,18.5 -106.9,24.4 			"/>
			<path class="st0" d="M-104.5,11l1.8,7.4l-4.2,5.5l-2-5.1l-0.1-0.1l-0.1-0.1l-5.5-3.7l6.2-2.9L-104.5,11 M-104.1,10.4l-4.5,1.1
				l-7,3.3l6.3,4.2l2.4,6l4.9-6.4L-104.1,10.4L-104.1,10.4z"/>
		</g>
		<g>
			<path d="M-102.5,34.4l0.3-14.9l3.6-3.5c2.4,3.6,4,9.6,4.3,10.6l-2.6,2.5l-3.9,5.6L-102.5,34.4z"/>
			<path class="st0" d="M-98.7,16.4c2.2,3.4,3.7,8.8,4.1,10.1l-2.5,2.4l0,0l0,0l-3.8,5.4l-1.2-0.1l0.3-14.6L-98.7,16.4 M-98.6,15.6
				l-3.8,3.8l-0.3,15.2l1.9,0.2l4-5.6l2.6-2.5l0.1-0.1C-94.1,26.7-95.8,19.5-98.6,15.6L-98.6,15.6z"/>
		</g>
		<g>
			<polygon points="-94.6,27.8 -94.1,27.4 -93.5,28.3 			"/>
			<polygon class="st0" points="-94.1,27 -95,27.9 -92.8,29 -94.1,27 			"/>
		</g>
		<g>
			<polygon points="-100.1,34.8 -96.4,29.6 -96,29.1 -93.6,33.8 -96.4,35 			"/>
			<path class="st0" d="M-96,29.6l2.1,4.1l-2.5,1.1l-3.1-0.2l3.4-4.8L-96,29.6 M-95.9,28.7l-0.7,0.8l-4,5.5l4.1,0.3l3.1-1.3
				L-95.9,28.7L-95.9,28.7z"/>
		</g>
		<g>
			<path d="M-103.3,34.5c-1.6,0-9-0.1-12.8-1.6c-1.4-1.1-4.1-4.5-4.6-5.2l1.5-3.3l2.7,3.1l0.1,0c0.2,0.1,4.4,1.7,6.8,1.7
				c0.2,0,0.5,0,0.7-0.1l0.1,0l0.1-0.1c1.4-2.4,4.7-6.8,5.9-8.4L-103.3,34.5z"/>
			<path class="st0" d="M-103.3,21.3l-0.3,12.9c-1.7,0-8.8-0.2-12.4-1.6c-1.3-1.1-3.8-4.1-4.5-5l1.3-2.8l2.4,2.7l0.1,0.1l0.1,0
				c0.2,0.1,4.4,1.7,6.9,1.7c0.3,0,0.5,0,0.7-0.1l0.2,0l0.1-0.2C-107.4,27-104.7,23.3-103.3,21.3 M-102.7,19.8c0,0-4.6,6-6.4,9
				c-0.2,0-0.4,0-0.6,0c-2.4,0-6.7-1.7-6.7-1.7l-2.9-3.3l-1.7,3.8c0,0,3.2,4.1,4.8,5.4c3.8,1.6,11.6,1.7,12.9,1.7c0.1,0,0.2,0,0.2,0
				L-102.7,19.8L-102.7,19.8z"/>
		</g>
		<g>
			<polygon points="-118.5,24 -116,23.8 -113.9,25.8 -116.1,26.7 			"/>
			<path class="st0" d="M-116.1,24.1l1.7,1.6l-1.7,0.7l-2-2.1L-116.1,24.1 M-115.9,23.5l-3.1,0.3l2.9,3.1l2.7-1.1L-115.9,23.5
				L-115.9,23.5z"/>
		</g>
		<g>
			<path d="M-109.7,28.4c-1.5,0-4.2-0.8-5.4-1.2l4.3-2c0.4,0.6,1.3,1.8,1.2,3.2C-109.6,28.4-109.7,28.4-109.7,28.4L-109.7,28.4z"/>
			<path class="st0" d="M-110.8,25.5c0.5,0.7,1,1.6,1,2.6c-1.3,0-3.3-0.6-4.6-1L-110.8,25.5 M-110.7,24.9l-5.1,2.3
				c0,0,4,1.4,6.1,1.4c0.1,0,0.2,0,0.4,0C-109.1,26.9-110.2,25.5-110.7,24.9L-110.7,24.9z"/>
		</g>
		<g>
			<polygon points="-109.1,21.1 -107.4,25.2 -108.4,26.8 			"/>
			<path class="st0" d="M-108.6,22.9l0.9,2.3l-0.5,0.9L-108.6,22.9 M-109.5,19.2l1,8.3l1.4-2.3L-109.5,19.2L-109.5,19.2z"/>
		</g>
		<g>
			<path d="M-109.3,25.9c-1-1.8-2.7-3.7-3.3-4.4l2.6-1.8C-109.8,20.7-109.5,23.4-109.3,25.9z"/>
			<path class="st0" d="M-110.2,20.2c0.2,0.9,0.4,2.7,0.5,4.7c-0.9-1.4-2-2.6-2.6-3.3L-110.2,20.2 M-109.9,19.4l-3.1,2.1
				c0,0,3.7,3.7,4.1,6.1C-109.1,24.8-109.5,20.1-109.9,19.4L-109.9,19.4z"/>
		</g>
		<g>
			<path d="M-109,27.6c0,0.2,0,0.3,0,0.5C-108.9,27.9-108.9,27.8-109,27.6z"/>
			<path class="st0" d="M-109,27.6c0,0.2,0,0.3,0,0.5C-108.9,27.9-108.9,27.8-109,27.6L-109,27.6z"/>
		</g>
		<g>
			<path d="M-121.3,26.8c-0.2-0.9-0.4-2.7,0.7-4.7c0.9-0.2,1.7-0.4,2.5-0.6c1.5-0.4,2.7-0.7,3.2-0.7c0.1,0,0.1,0,0.1,0
				c0.3,0.1,1.9,1.9,3.4,3.7l-1.8,0.9l-2.6-2.4l-3.8,0.2L-121.3,26.8z"/>
			<path class="st0" d="M-114.8,21.1C-114.8,21.1-114.8,21.1-114.8,21.1c0.4,0.3,1.8,1.8,3.1,3.4l-1.4,0.7l-2.4-2.2l-0.2-0.1l-0.2,0
				l-3.6,0.2l-0.3,0l-0.1,0.3l-1.3,2.7c-0.1-0.9,0-2.2,0.8-3.6c0.8-0.2,1.6-0.4,2.4-0.6C-116.5,21.4-115.3,21.1-114.8,21.1
				 M-114.8,20.6c-0.8,0-3.2,0.7-5.9,1.3c-1.7,3-0.6,5.6-0.6,5.6l2-4l3.6-0.2l2.6,2.4l2.2-1.1c0,0-3.3-3.8-3.7-4
				C-114.7,20.6-114.7,20.6-114.8,20.6L-114.8,20.6z"/>
		</g>
		<g>
			<polygon points="-120.6,18 -115,20.1 -120.4,21.2 			"/>
			<path class="st0" d="M-120.3,18.4l4.4,1.6l-4.3,0.9L-120.3,18.4 M-120.9,17.6l0.2,3.9l6-1.3l1.1,1l-0.7-1.2L-120.9,17.6
				L-120.9,17.6z"/>
		</g>
		<g>
			<path d="M-129.8,25.7l8.4-7.3l0.1,3.1c-0.5,0.6-4,5-4.2,12.7L-129.8,25.7z"/>
			<path class="st0" d="M-121.6,19l0.1,2.5c-0.7,0.8-3.7,4.8-4.2,11.8l-3.8-7.5L-121.6,19 M-121.2,17.7l-0.1,0.3l-8.8,7.7l4.8,9.6
				c0-8.9,4.3-13.6,4.3-13.6L-121.2,17.7L-121.2,17.7z"/>
		</g>
		<g>
			<path d="M-121.2,50.6c-0.3-2.3-0.5-4-0.6-4.6c0.7,0,2.3,0.1,4.3,0.1c5.1,0,11.6-0.4,14.1-2.4l5.2,6.9c-1.1-0.2-3.7-0.4-8.8-0.4
				C-111.1,50-115.8,50.2-121.2,50.6z"/>
			<path class="st0" d="M-103.5,44l4.7,6.2c-1.4-0.2-3.9-0.4-8.2-0.4c-4,0-8.7,0.2-13.9,0.5c-0.2-1.9-0.4-3.4-0.6-4.1
				c0.8,0,2.3,0.1,4,0.1C-112.5,46.3-106.1,45.9-103.5,44 M-103.4,43.3c-2.2,2.1-9.3,2.5-14.1,2.5c-2.7,0-4.6-0.1-4.6-0.1
				s0.4,2,0.7,5.2c6.2-0.4,10.8-0.6,14.4-0.6c7,0,9.4,0.6,9.4,0.6L-103.4,43.3L-103.4,43.3z"/>
		</g>
		<g>
			<path d="M-114.8,45.3c-2.9,0-5.1-0.6-6.3-1.6c-0.7-1.5-1.4-2.9-2-4.1c-0.9-1.8-1.7-3.5-1.7-3.8c0-0.1,0-0.2,0-0.4
				c0.1-4.4,1-8.1,2.7-10.9c-0.2,1.3-0.2,3.1,0.8,4.5c1.5,1.7,4.5,4.9,4.5,4.9l0,0l0,0c0.2,0.1,4,1.7,11.1,1.7c0.8,0,1.6,0,2.4-0.1
				c4.4,0.5,6.6,0.6,6.6,0.6l0.1,0l1.8-0.8c-3.9,3.5-9,7.9-9.7,8.1l-0.1,0l0,0.1C-104.8,43.8-110.1,45.3-114.8,45.3z"/>
			<path class="st0" d="M-122.4,25.5c0,1.1,0.2,2.4,1,3.4c1.5,1.7,4.5,4.9,4.5,4.9l0.1,0.1l0.1,0c0.2,0.1,4.1,1.7,11.2,1.7
				c0.8,0,1.6,0,2.4-0.1c4.4,0.5,6.6,0.6,6.6,0.6l0.1,0l0.1,0l0.2-0.1c-3.6,3.2-7.8,6.7-8.3,7l-0.2,0.1l-0.1,0.1
				c-0.6,0.5-5.5,1.8-10.2,1.8c-2.8,0-4.9-0.5-6-1.5c-0.7-1.5-1.4-2.9-2-4.1c-0.8-1.6-1.6-3.3-1.6-3.7c0-0.1,0-0.2,0-0.5
				C-124.4,31.4-123.7,28.1-122.4,25.5 M-121.5,22.9c-3.6,5.2-3.4,12.1-3.5,12.7c-0.1,0.7,1.8,4,3.7,8.2c1.4,1.3,3.8,1.7,6.4,1.7
				c4.8,0,10.3-1.5,10.6-2.1c1-0.4,11-9.3,11-9.3l-3.2,1.5c0,0-2.1-0.1-6.6-0.6c-0.8,0-1.6,0.1-2.4,0.1c-7.1,0-11-1.6-11-1.6
				s-3-3.1-4.5-4.9C-122.7,26.5-121.5,22.9-121.5,22.9L-121.5,22.9z"/>
		</g>
		<g>
			<g>
				<path d="M-132.2,28l-0.7-9.4l1.3-4.7c1.1-0.2,8.1-1.4,10.7-1.4c0.6,0,0.7,0.1,0.8,0.1c1,0.5,8.3,5.4,9.9,6.5
					c-1.1,0.7-2.5,1.6-3,1.9c-0.3-0.4-0.6-1.1-0.6-1.1l0-0.1l-7.1-2.8l-9.6,8.3l-0.3,2.7l-3.1,0.7L-132.2,28z"/>
				<path class="st0" d="M-120.9,12.7c0.5,0,0.7,0.1,0.7,0.1c0.8,0.4,6.3,4.1,9.5,6.3c-1,0.6-1.9,1.3-2.4,1.6
					c-0.2-0.3-0.4-0.7-0.5-0.9l-0.1-0.2l-0.2-0.1l-6.9-2.7l-0.3-0.1l-0.2,0.2l-9.4,8.1l-0.1,0.1l0,0.2l-0.3,2.4l-0.9,0.2l0-0.2
					l-0.6-9.1l1.2-4.6C-129.9,13.8-123.3,12.7-120.9,12.7 M-120.9,12.2c-2.9,0-10.9,1.4-10.9,1.4l-1.3,5l0.6,9.2l-4.4,1.9l6.2-1.5
					l0.3-2.8l9.4-8.1l6.9,2.7c0,0,0.5,1,0.8,1.4c0.2-0.1,3.5-2.3,3.5-2.3s-9.1-6.2-10.2-6.7C-120.1,12.2-120.4,12.2-120.9,12.2
					L-120.9,12.2z"/>
			</g>
			<g>
				<path d="M-124.4,46.1c-1-0.3-10.3-3.3-15.2-3.7c0.2-0.8,0.4-2,0.6-3.5c0.5-3.1,1.4-7.9,1.9-8.6l6.1-1.5c0,1.5-0.1,6.9,0.4,8
					c0.3,0.6,1.7,2.1,3.4,3.9c1.7,1.8,3.7,4,4.2,4.9L-124.4,46.1z"/>
				<path class="st0" d="M-131.2,29.1c0,2-0.1,6.7,0.5,7.7c0.3,0.6,1.5,1.9,3.4,4c1.4,1.6,3.3,3.6,4,4.6l-1.1,0.4
					c-1.3-0.4-10-3.2-14.9-3.7c0.2-0.8,0.4-1.9,0.6-3.2c0.5-2.7,1.3-7.6,1.9-8.4L-131.2,29.1 M-130.7,28.5l-6.5,1.6
					c-0.9,0.9-2.2,10.1-2.8,12.5c5.1,0.4,15.5,3.8,15.5,3.8s0,0,1.8-0.6c-0.4-1.3-7.1-7.9-7.7-9C-130.9,35.5-130.7,28.5-130.7,28.5
					L-130.7,28.5z"/>
			</g>
		</g>
		<g>
			<path d="M-120.3,45.1c-0.9-0.1-1.5-0.1-1.7-0.1c-3.1-3.3-7.7-8.3-8-9c-0.2-0.6-0.1-5.2,0-8.7c2,4.3,7.9,16.6,8.2,16.9
				C-121.7,44.4-121.1,44.7-120.3,45.1z"/>
			<path class="st0" d="M-129.8,28.4c3.1,6.6,7.5,15.7,7.7,16c0.1,0.1,0.3,0.2,0.5,0.4c-0.2,0-0.3,0-0.4,0c-3.6-3.8-7.6-8.2-7.8-8.8
				C-129.9,35.5-129.9,32-129.8,28.4 M-130.2,26.3c0,0-0.3,8.8,0,9.8c0.3,1,8.1,9.1,8.1,9.1s1.9,0.1,4.3,0.3
				c-1.7-0.3-3.5-1.2-3.8-1.5C-121.9,43.7-130.2,26.3-130.2,26.3L-130.2,26.3z"/>
		</g>
	</g>
</g>
<line class="st7" x1="-137.1" y1="29.8" x2="-130.5" y2="28.3"/>
<line class="st7" x1="-135.6" y1="25.8" x2="-135.6" y2="25.9"/>
<g>
	<g>
		<circle class="st0" cx="-40.5" cy="24" r="21.4"/>
		<g class="st1">
			<path class="st2" d="M-40.5,2.6c11.8,0,21.4,9.6,21.4,21.4s-9.6,21.4-21.4,21.4S-62,35.8-62,24S-52.4,2.6-40.5,2.6 M-40.5,1.6
				C-52.9,1.6-63,11.6-63,24s10.1,22.4,22.4,22.4S-18.1,36.4-18.1,24S-28.2,1.6-40.5,1.6L-40.5,1.6z"/>
		</g>
	</g>
	<g>
		<g class="st1">
			<linearGradient id="SVGID_5_" gradientUnits="userSpaceOnUse" x1="-40.5417" y1="2.5625" x2="-40.5417" y2="45.4375">
				<stop  offset="0" style="stop-color:#FFFFFF"/>
				<stop  offset="0.2054" style="stop-color:#F5F5F5"/>
				<stop  offset="0.559" style="stop-color:#EBEBEB"/>
				<stop  offset="1" style="stop-color:#E8E8E8"/>
			</linearGradient>
			<path class="st10" d="M-40.5,3.6c11.3,0,20.4,9.2,20.4,20.4s-9.2,20.4-20.4,20.4S-61,35.3-61,24S-51.8,3.6-40.5,3.6 M-40.5,2.6
				C-52.4,2.6-62,12.2-62,24s9.6,21.4,21.4,21.4s21.4-9.6,21.4-21.4S-28.7,2.6-40.5,2.6L-40.5,2.6z"/>
		</g>
	</g>
	<g>
		<g class="st1">
			<linearGradient id="SVGID_6_" gradientUnits="userSpaceOnUse" x1="-40.5417" y1="45.4375" x2="-40.5417" y2="2.5625">
				<stop  offset="0" style="stop-color:#FFFFFF"/>
				<stop  offset="0.2054" style="stop-color:#F5F5F5"/>
				<stop  offset="0.559" style="stop-color:#EBEBEB"/>
				<stop  offset="1" style="stop-color:#E8E8E8"/>
			</linearGradient>
			<path class="st11" d="M-40.5,3.6c11.3,0,20.4,9.2,20.4,20.4s-9.2,20.4-20.4,20.4S-61,35.3-61,24S-51.8,3.6-40.5,3.6 M-40.5,2.6
				C-52.4,2.6-62,12.2-62,24s9.6,21.4,21.4,21.4s21.4-9.6,21.4-21.4S-28.7,2.6-40.5,2.6L-40.5,2.6z"/>
		</g>
	</g>
</g>
<g>
	<g class="st5">
		<g>
			<polygon points="-33.7,19.4 -30,14.6 -31.5,8.5 -34.9,9.3 -40.1,11.8 -35.4,14.9 			"/>
		</g>
		<g>
			<path d="M-30.5,26.8l1.4,0.2l3-4.2l2-1.9l0.1-0.1c0,0-1.3-5.3-3.4-8.3l-2.9,2.9L-30.5,26.8z"/>
		</g>
		<g>
			<polygon points="-25.9,22.8 -28.8,27 -25.7,27.2 -23.4,26.2 -25.4,22.3 			"/>
		</g>
		<g>
			<path d="M-40.6,25.5c3.2,1.3,9.8,1.2,9.8,1.2l0.3-11.2c0,0-3.5,4.5-4.8,6.8c-1.6,0.3-5.5-1.2-5.5-1.2l-2.2-2.5l-1.3,2.9
				C-44.2,21.5-41.8,24.6-40.6,25.5z"/>
		</g>
		<g>
			<polygon points="-42.7,18.6 -40.6,21 -38.5,20.2 -40.4,18.4 			"/>
		</g>
		<g>
			<path d="M-35.5,22.2c0.2-1.2-0.6-2.3-1-2.8l-3.8,1.7C-40.3,21.1-36.9,22.3-35.5,22.2z"/>
		</g>
		<g>
			<polygon points="-33.8,19.7 -35.6,15.1 -34.9,21.4 			"/>
		</g>
		<g>
			<path d="M-38.2,16.9c0,0,2.8,2.8,3.1,4.6c-0.1-2.1-0.4-5.7-0.7-6.2L-38.2,16.9z"/>
		</g>
		<g>
			<path d="M-35.2,21.5c0,0.1,0,0.2,0,0.4C-35.1,21.7-35.2,21.6-35.2,21.5z"/>
		</g>
		<g>
			<path d="M-44.4,21.4l1.5-3l2.7-0.1l2,1.8l1.7-0.8c0,0-2.5-2.9-2.8-3c-0.3-0.1-2.3,0.5-4.6,1C-45.2,19.5-44.4,21.4-44.4,21.4z"/>
		</g>
		<g>
			<polygon points="-39.4,15.9 -38.6,16.7 -39.2,15.8 -44.1,14 -43.9,16.9 			"/>
		</g>
		<g>
			<path d="M-44.3,14l-0.1,0.2L-51,20l3.6,7.2c0-6.7,3.2-10.2,3.2-10.2L-44.3,14z"/>
		</g>
		<g>
			<path d="M-45,35c0,0,0.3,1.5,0.5,3.9c13.9-0.9,17.8,0,17.8,0l-4.3-5.7C-33.6,35.7-45,35-45,35z"/>
		</g>
		<g>
			<path d="M-30.8,27c-6.5,0.3-10-1.2-10-1.2s-2.3-2.4-3.4-3.7c-1.2-1.6-0.4-4.3-0.4-4.3c-2.7,3.9-2.6,9-2.6,9.5
				c-0.1,0.5,1.4,3,2.8,6.1c2.9,2.7,12.4,0.4,12.8-0.3c0.7-0.3,8.2-7,8.2-7l-2.4,1.1C-25.8,27.5-27.4,27.4-30.8,27z"/>
		</g>
		<g>
			<g>
				<path d="M-43.4,10c-0.9-0.4-8.9,1-8.9,1l-1,3.7l0.5,6.9l-3.3,1.4l4.6-1.1l0.2-2.1l7-6.1l5.2,2c0,0,0.4,0.7,0.6,1
					c0.2-0.1,2.6-1.7,2.6-1.7S-42.6,10.4-43.4,10z"/>
			</g>
			<g>
				<path d="M-51.4,22.1l-4.9,1.2c-0.7,0.7-1.6,7.6-2.1,9.4c3.8,0.3,11.7,2.8,11.7,2.8s0,0,1.4-0.5c-0.3-1-5.4-5.9-5.8-6.8
					S-51.4,22.1-51.4,22.1z"/>
			</g>
		</g>
		<g>
			<path d="M-51.1,27.8c0.3,0.7,6.1,6.8,6.1,6.8s1.4,0.1,3.2,0.2c-1.3-0.2-2.7-0.9-2.8-1.1c-0.2-0.2-6.4-13.3-6.4-13.3
				S-51.4,27.1-51.1,27.8z"/>
		</g>
	</g>
	<g class="st6">
		<g>
			<polygon points="-33.7,19 -30,14.3 -31.5,8.2 -34.9,9 -40.1,11.4 -35.4,14.6 			"/>
		</g>
		<g>
			<path d="M-30.5,26.4l1.4,0.2l3-4.2l2-1.9l0.1-0.1c0,0-1.3-5.3-3.4-8.3l-2.9,2.9L-30.5,26.4z"/>
		</g>
		<g>
			<polygon points="-25.9,22.5 -28.8,26.6 -25.7,26.8 -23.4,25.8 -25.4,21.9 			"/>
		</g>
		<g>
			<path d="M-40.6,25.2c3.2,1.3,9.8,1.2,9.8,1.2l0.3-11.2c0,0-3.5,4.5-4.8,6.8c-1.6,0.3-5.5-1.2-5.5-1.2l-2.2-2.5l-1.3,2.9
				C-44.2,21.1-41.8,24.2-40.6,25.2z"/>
		</g>
		<g>
			<polygon points="-42.7,18.2 -40.6,20.6 -38.5,19.8 -40.4,18 			"/>
		</g>
		<g>
			<path d="M-35.5,21.8c0.2-1.2-0.6-2.3-1-2.8l-3.8,1.7C-40.3,20.8-36.9,22-35.5,21.8z"/>
		</g>
		<g>
			<polygon points="-33.8,19.3 -35.6,14.8 -34.9,21 			"/>
		</g>
		<g>
			<path d="M-38.2,16.5c0,0,2.8,2.8,3.1,4.6c-0.1-2.1-0.4-5.7-0.7-6.2L-38.2,16.5z"/>
		</g>
		<g>
			<path d="M-35.2,21.1c0,0.1,0,0.2,0,0.4C-35.1,21.3-35.2,21.2-35.2,21.1z"/>
		</g>
		<g>
			<path d="M-44.4,21l1.5-3l2.7-0.1l2,1.8l1.7-0.8c0,0-2.5-2.9-2.8-3c-0.3-0.1-2.3,0.5-4.6,1C-45.2,19.1-44.4,21-44.4,21z"/>
		</g>
		<g>
			<polygon points="-39.4,15.5 -38.6,16.3 -39.2,15.4 -44.1,13.6 -43.9,16.5 			"/>
		</g>
		<g>
			<path d="M-44.3,13.6l-0.1,0.2l-6.6,5.8l3.6,7.2c0-6.7,3.2-10.2,3.2-10.2L-44.3,13.6z"/>
		</g>
		<g>
			<path d="M-45,34.6c0,0,0.3,1.5,0.5,3.9c13.9-0.9,17.8,0,17.8,0l-4.3-5.7C-33.6,35.3-45,34.6-45,34.6z"/>
		</g>
		<g>
			<path d="M-30.8,26.7c-6.5,0.3-10-1.2-10-1.2s-2.3-2.4-3.4-3.7c-1.2-1.6-0.4-4.3-0.4-4.3c-2.7,3.9-2.6,9-2.6,9.5
				c-0.1,0.5,1.4,3,2.8,6.1c2.9,2.7,12.4,0.4,12.8-0.3c0.7-0.3,8.2-7,8.2-7l-2.4,1.1C-25.8,27.1-27.4,27-30.8,26.7z"/>
		</g>
		<g>
			<g>
				<path d="M-43.4,9.6c-0.9-0.4-8.9,1-8.9,1l-1,3.7l0.5,6.9l-3.3,1.4l4.6-1.1l0.2-2.1l7-6.1l5.2,2c0,0,0.4,0.7,0.6,1
					c0.2-0.1,2.6-1.7,2.6-1.7S-42.6,10-43.4,9.6z"/>
			</g>
			<g>
				<path d="M-51.4,21.7l-4.9,1.2c-0.7,0.7-1.6,7.6-2.1,9.4c3.8,0.3,11.7,2.8,11.7,2.8s0,0,1.4-0.5c-0.3-1-5.4-5.9-5.8-6.8
					S-51.4,21.7-51.4,21.7z"/>
			</g>
		</g>
		<g>
			<path d="M-51.1,27.4c0.3,0.7,6.1,6.8,6.1,6.8s1.4,0.1,3.2,0.2c-1.3-0.2-2.7-0.9-2.8-1.1c-0.2-0.2-6.4-13.3-6.4-13.3
				S-51.4,26.7-51.1,27.4z"/>
		</g>
	</g>
	<g>
		<g>
			<polygon points="-35.2,14 -39.6,11.1 -34.8,8.8 -31.7,8.1 -30.3,13.8 -33.6,18.2 			"/>
			<path class="st0" d="M-31.9,8.4l1.3,5.4l-3,3.9L-35,14l-0.1-0.1l-0.1-0.1l-4-2.6l4.4-2.1L-31.9,8.4 M-31.5,7.8l-3.3,0.8l-5.3,2.5
				l4.7,3.1l1.8,4.5l3.6-4.8L-31.5,7.8L-31.5,7.8z"/>
		</g>
		<g>
			<path d="M-30.2,25.8l0.2-11.1l2.6-2.6c1.8,2.6,3,7,3.2,7.8l-1.9,1.8l-2.9,4.1L-30.2,25.8z"/>
			<path class="st0" d="M-27.5,12.5c1.6,2.5,2.6,6.3,2.9,7.3l-1.8,1.7l0,0l0,0l-2.8,4l-0.7-0.1l0.2-10.8L-27.5,12.5 M-27.4,11.7
				l-2.9,2.9L-30.5,26l1.4,0.2l3-4.2l2-1.9L-24,20C-24,20-25.3,14.7-27.4,11.7L-27.4,11.7z"/>
		</g>
		<g>
			<polygon points="-28.4,26 -25.7,22.2 -25.4,22 -23.7,25.3 -25.8,26.2 			"/>
			<path class="st0" d="M-25.5,22.4l1.4,2.8l-1.8,0.7l-2.1-0.1L-25.5,22.4L-25.5,22.4 M-25.4,21.5l-0.5,0.6l-3,4.1l3.1,0.2l2.4-1
				L-25.4,21.5L-25.4,21.5z"/>
		</g>
		<g>
			<path d="M-31,25.8c-1.3,0-6.8-0.1-9.5-1.2c-1-0.8-3-3.3-3.4-3.8l1-2.4l2,2.3l0.1,0c0.1,0.1,3.3,1.3,5.1,1.3c0.2,0,0.4,0,0.5,0
				l0.1,0l0.1-0.1c1-1.7,3.3-4.8,4.3-6.1L-31,25.8z"/>
			<path class="st0" d="M-31,16.4l-0.2,9.1c-1.5,0-6.5-0.1-9.1-1.2c-1-0.8-2.7-2.9-3.3-3.7l0.8-1.9l1.7,1.9l0.1,0.1l0.1,0
				c0.1,0.1,3.3,1.3,5.2,1.3c0.2,0,0.4,0,0.5,0l0.2,0l0.1-0.2C-34,20.4-32.2,17.9-31,16.4 M-30.5,14.9c0,0-3.5,4.5-4.8,6.8
				c-0.1,0-0.3,0-0.5,0c-1.8,0-5-1.3-5-1.3l-2.2-2.5l-1.3,2.9c0,0,2.4,3.1,3.6,4c2.9,1.2,8.7,1.2,9.7,1.2c0.1,0,0.1,0,0.1,0
				L-30.5,14.9L-30.5,14.9z"/>
		</g>
		<g>
			<polygon points="-42.2,18.1 -40.5,17.9 -39,19.3 -40.5,19.9 			"/>
			<path class="st0" d="M-40.6,18.2l1.1,1.1l-1,0.4l-1.2-1.3L-40.6,18.2 M-40.4,17.7l-2.3,0.2l2.2,2.3l2-0.8L-40.4,17.7L-40.4,17.7z
				"/>
		</g>
		<g>
			<path d="M-35.7,21.2c-1.1,0-2.9-0.5-3.9-0.8l3.1-1.4C-36.1,19.5-35.6,20.3-35.7,21.2C-35.7,21.2-35.7,21.2-35.7,21.2
				C-35.7,21.2-35.7,21.2-35.7,21.2z"/>
			<path class="st0" d="M-36.6,19.3c0.3,0.5,0.6,1,0.7,1.7c-0.9,0-2.1-0.4-2.9-0.6L-36.6,19.3 M-36.4,18.7l-3.8,1.7
				c0,0,3,1.1,4.5,1.1c0.1,0,0.2,0,0.3,0C-35.3,20.2-36.1,19.1-36.4,18.7L-36.4,18.7z"/>
		</g>
		<g>
			<polygon points="-35.1,16.3 -34.1,18.9 -34.7,19.9 			"/>
			<path class="st0" d="M-34.7,18.1l0.3,0.8l-0.2,0.3L-34.7,18.1 M-35.6,14.4l0.7,6.3l1.1-1.7L-35.6,14.4L-35.6,14.4z"/>
		</g>
		<g>
			<path d="M-35.5,19.2c-0.7-1.2-1.9-2.5-2.3-3L-36,15C-35.8,15.6-35.7,17.4-35.5,19.2z"/>
			<path class="st0" d="M-36.2,15.4c0.1,0.6,0.2,1.7,0.3,2.8c-0.6-0.8-1.2-1.5-1.6-2L-36.2,15.4 M-35.9,14.6l-2.3,1.6
				c0,0,2.8,2.8,3.1,4.6C-35.3,18.6-35.6,15-35.9,14.6L-35.9,14.6z"/>
		</g>
		<g>
			<path d="M-35.2,20.7c0,0.1,0,0.2,0,0.4C-35.1,21-35.2,20.8-35.2,20.7z"/>
			<path class="st0" d="M-35.2,20.7c0,0.1,0,0.2,0,0.4C-35.1,21-35.2,20.8-35.2,20.7L-35.2,20.7z"/>
		</g>
		<g>
			<path d="M-44.4,19.9c-0.1-0.7-0.2-1.9,0.6-3.3c0.6-0.1,1.3-0.3,1.8-0.4c1.1-0.3,2.1-0.5,2.4-0.5c0.3,0.1,1.5,1.4,2.6,2.7
				l-1.2,0.6l-1.9-1.8l-2.9,0.1L-44.4,19.9z"/>
			<path class="st0" d="M-39.6,16c0.3,0.2,1.3,1.3,2.2,2.4l-0.8,0.4l-1.7-1.6l-0.2-0.1l-0.2,0l-2.7,0.1l-0.3,0l-0.1,0.3l-0.8,1.6
				c0-0.6,0.1-1.3,0.5-2.1c0.6-0.1,1.2-0.3,1.7-0.4C-40.9,16.2-40,16-39.6,16 M-39.6,15.5c-0.6,0-2.4,0.5-4.4,1
				c-1.3,2.3-0.5,4.2-0.5,4.2l1.5-3l2.7-0.1l2,1.8l1.7-0.8c0,0-2.5-2.9-2.8-3C-39.5,15.5-39.5,15.5-39.6,15.5L-39.6,15.5z"/>
		</g>
		<g>
			<polygon points="-43.8,13.6 -39.9,15 -43.7,15.8 			"/>
			<path class="st0" d="M-43.6,14l2.7,1l-2.7,0.6L-43.6,14 M-44.1,13.2l0.2,2.9l4.5-1l0.8,0.8l-0.6-0.9L-44.1,13.2L-44.1,13.2z"/>
		</g>
		<g>
			<path d="M-50.7,19.3l6.2-5.4l0.1,2.2c-0.5,0.5-2.9,3.7-3.2,9.3L-50.7,19.3z"/>
			<path class="st0" d="M-44.8,14.5l0.1,1.6c-0.6,0.7-2.7,3.5-3.1,8.4l-2.6-5.1L-44.8,14.5 M-44.3,13.3l-0.1,0.2l-6.6,5.8l3.6,7.2
				c0-6.7,3.2-10.2,3.2-10.2L-44.3,13.3L-44.3,13.3z"/>
		</g>
		<g>
			<path d="M-44.3,37.9c-0.2-1.6-0.4-2.8-0.5-3.4c0.5,0,1.7,0.1,3.2,0.1c3.8,0,8.7-0.3,10.5-1.8l3.8,5c-0.9-0.1-2.9-0.3-6.5-0.3
				C-36.7,37.5-40.3,37.6-44.3,37.9z"/>
			<path class="st0" d="M-31.1,33.2l3.3,4.3c-1.1-0.1-3-0.2-5.9-0.2c-3,0-6.4,0.1-10.3,0.4c-0.1-1.3-0.3-2.2-0.4-2.8
				c0.6,0,1.7,0.1,2.9,0.1C-37.9,34.8-33.2,34.5-31.1,33.2 M-31,32.5c-1.7,1.6-7,1.9-10.6,1.9c-2,0-3.5-0.1-3.5-0.1s0.3,1.5,0.5,3.9
				c4.6-0.3,8.1-0.4,10.8-0.4c5.3,0,7,0.4,7,0.4L-31,32.5L-31,32.5z"/>
		</g>
		<g>
			<path d="M-39.6,33.9c-2.2,0-3.8-0.4-4.7-1.2c-0.5-1.1-1-2.2-1.5-3.1c-0.6-1.3-1.3-2.6-1.2-2.8c0-0.1,0-0.2,0-0.3
				c0.1-3.1,0.7-5.8,1.8-7.9c-0.1,0.9,0,2.2,0.7,3.1c1.1,1.3,3.4,3.7,3.4,3.7l0,0l0,0c0.1,0.1,3,1.2,8.4,1.2c0.6,0,1.2,0,1.8,0
				c3.3,0.4,4.9,0.4,5,0.4l0.1,0l1-0.4c-2.9,2.6-6.5,5.6-6.9,5.8l-0.1,0l0,0.1C-32.2,32.8-36,33.9-39.6,33.9z"/>
			<path class="st0" d="M-45.4,19.7c0.1,0.7,0.3,1.5,0.8,2.1c1.1,1.3,3.4,3.7,3.4,3.7l0.1,0.1l0.1,0c0.1,0.1,3.1,1.3,8.4,1.3
				c0.6,0,1.2,0,1.8,0c2.8,0.3,4.4,0.4,4.9,0.4c-2.6,2.3-5.4,4.7-5.9,4.9l-0.2,0.1l-0.1,0.1c-0.5,0.4-4.1,1.3-7.6,1.3
				c-2.1,0-3.6-0.4-4.4-1.1c-0.5-1.1-1-2.2-1.5-3.1c-0.6-1.2-1.2-2.4-1.2-2.7c0-0.1,0-0.2,0-0.4C-46.6,23.8-46.2,21.5-45.4,19.7
				 M-44.6,17.2c-2.7,3.9-2.6,9-2.6,9.5c-0.1,0.5,1.4,3,2.8,6.1c1,0.9,2.9,1.3,4.8,1.3c3.6,0,7.7-1.1,8-1.5c0.7-0.3,8.2-7,8.2-7
				l-2.4,1.1c0,0-1.6-0.1-5-0.4c-0.6,0-1.2,0-1.8,0c-5.3,0-8.3-1.2-8.3-1.2s-2.3-2.4-3.4-3.7C-45.5,19.8-44.6,17.2-44.6,17.2
				L-44.6,17.2z"/>
		</g>
		<g>
			<g>
				<path d="M-52.5,21l-0.5-7.1l0.9-3.5c1-0.2,6.1-1,8-1c0.4,0,0.5,0,0.6,0.1c0.7,0.4,6,3.9,7.3,4.8c-0.7,0.5-1.7,1.1-2.1,1.4
					c-0.2-0.3-0.4-0.6-0.4-0.8l0-0.1l-5.4-2.1l-7.2,6.3l-0.2,2l-1.5,0.4L-52.5,21z"/>
				<path class="st0" d="M-44.1,9.6c0.3,0,0.4,0,0.4,0c0,0,0,0,0,0c0.6,0.3,4.8,3.1,7,4.6c-0.6,0.4-1.2,0.8-1.6,1
					c-0.1-0.2-0.2-0.4-0.3-0.6l-0.1-0.2l-0.2-0.1l-5.2-2l-0.3-0.1l-0.2,0.2l-7,6.1l-0.1,0.1l0,0.2l-0.2,1.7l-0.4,0.1l0,0l-0.5-6.8
					l0.9-3.3C-50.6,10.4-45.9,9.6-44.1,9.6 M-44.1,9.1c-2.1,0-8.2,1.1-8.2,1.1l-1,3.7l0.5,6.9l-3.3,1.4l4.6-1.1l0.2-2.1l7-6.1l5.2,2
					c0,0,0.4,0.7,0.6,1c0.2-0.1,2.6-1.7,2.6-1.7s-6.8-4.6-7.6-5.1C-43.5,9.2-43.8,9.1-44.1,9.1L-44.1,9.1z"/>
			</g>
			<g>
				<path d="M-46.7,34.5c-0.9-0.3-7.6-2.4-11.3-2.8c0.1-0.6,0.3-1.5,0.5-2.5c0.4-2.2,1-5.8,1.4-6.4l4.5-1.1c0,1.2-0.1,5.1,0.3,5.9
					c0.2,0.4,1.3,1.6,2.6,3c1.2,1.3,2.7,2.9,3.1,3.6L-46.7,34.5z"/>
				<path class="st0" d="M-52,22c0,1.6,0,4.9,0.4,5.7c0.2,0.4,1.1,1.4,2.6,3c1,1,2.3,2.5,2.9,3.3l-0.6,0.2c-1.1-0.4-7.4-2.3-11-2.8
					c0.1-0.6,0.3-1.4,0.4-2.3c0.3-1.9,1-5.5,1.3-6.2L-52,22 M-51.4,21.4l-4.9,1.2c-0.7,0.7-1.6,7.6-2.1,9.4
					c3.8,0.3,11.7,2.8,11.7,2.8s0,0,1.4-0.5c-0.3-1-5.4-5.9-5.8-6.8C-51.6,26.6-51.4,21.4-51.4,21.4L-51.4,21.4z"/>
			</g>
		</g>
		<g>
			<path d="M-44.9,33.7c-2.2-2.4-5.8-6.2-5.9-6.7c-0.2-0.4-0.1-3.7,0-6.2c1.8,3.8,5.8,12.2,6,12.4c0.1,0.1,0.4,0.3,0.9,0.5
				C-44.5,33.7-44.8,33.7-44.9,33.7z"/>
			<path class="st0" d="M-50.7,21.8c3,6.2,4.8,9.9,5.4,11.1c-2.3-2.4-5.1-5.5-5.3-6C-50.7,26.5-50.7,24.3-50.7,21.8 M-51.1,19.7
				c0,0-0.3,6.6,0,7.3c0.3,0.7,6.1,6.8,6.1,6.8s1.4,0.1,3.2,0.2c-1.3-0.2-2.7-0.9-2.8-1.1C-44.9,32.8-51.1,19.7-51.1,19.7
				L-51.1,19.7z"/>
		</g>
	</g>
</g>
<line class="st7" x1="-56.3" y1="22.4" x2="-51.3" y2="21.2"/>
<line class="st7" x1="-55.2" y1="19.4" x2="-55.2" y2="19.4"/>
<g>
	<g>
		<circle class="st0" cx="16" cy="16" r="14.3"/>
		<g class="st1">
			<path class="st2" d="M16,1.7c7.9,0,14.3,6.4,14.3,14.3S23.9,30.3,16,30.3S1.7,23.9,1.7,16S8.1,1.7,16,1.7 M16,0.7
				C7.6,0.7,0.7,7.6,0.7,16c0,8.4,6.9,15.3,15.3,15.3S31.3,24.4,31.3,16C31.3,7.6,24.4,0.7,16,0.7L16,0.7z"/>
		</g>
	</g>
	<g>
		<g class="st1">
			<linearGradient id="SVGID_7_" gradientUnits="userSpaceOnUse" x1="16" y1="1.7083" x2="16" y2="30.2917">
				<stop  offset="0" style="stop-color:#FFFFFF"/>
				<stop  offset="0.2054" style="stop-color:#F5F5F5"/>
				<stop  offset="0.559" style="stop-color:#EBEBEB"/>
				<stop  offset="1" style="stop-color:#E8E8E8"/>
			</linearGradient>
			<path class="st12" d="M16,2.7c7.3,0,13.3,6,13.3,13.3s-6,13.3-13.3,13.3S2.7,23.3,2.7,16S8.7,2.7,16,2.7 M16,1.7
				C8.1,1.7,1.7,8.1,1.7,16S8.1,30.3,16,30.3S30.3,23.9,30.3,16S23.9,1.7,16,1.7L16,1.7z"/>
		</g>
	</g>
	<g>
		<g class="st1">
			<linearGradient id="SVGID_8_" gradientUnits="userSpaceOnUse" x1="16" y1="30.2917" x2="16" y2="1.7083">
				<stop  offset="0" style="stop-color:#FFFFFF"/>
				<stop  offset="0.2054" style="stop-color:#F5F5F5"/>
				<stop  offset="0.559" style="stop-color:#EBEBEB"/>
				<stop  offset="1" style="stop-color:#E8E8E8"/>
			</linearGradient>
			<path class="st13" d="M16,2.7c7.3,0,13.3,6,13.3,13.3s-6,13.3-13.3,13.3S2.7,23.3,2.7,16S8.7,2.7,16,2.7 M16,1.7
				C8.1,1.7,1.7,8.1,1.7,16S8.1,30.3,16,30.3S30.3,23.9,30.3,16S23.9,1.7,16,1.7L16,1.7z"/>
		</g>
	</g>
</g>
<g>
	<g class="st5">
		<g>
			<polygon points="20.6,12.9 23,9.8 22,5.7 19.8,6.2 16.3,7.9 19.4,10 			"/>
		</g>
		<g>
			<path d="M22.7,17.8l1,0.1l2-2.8l1.3-1.2l0.1-0.1c0,0-0.9-3.6-2.3-5.5l-1.9,1.9L22.7,17.8z"/>
		</g>
		<g>
			<polygon points="25.8,15.2 23.8,18 25.9,18.1 27.4,17.5 26.1,14.8 			"/>
		</g>
		<g>
			<path d="M16,17c2.1,0.9,6.6,0.8,6.6,0.8l0.2-7.4c0,0-2.3,3-3.2,4.5c-1.1,0.2-3.6-0.8-3.6-0.8l-1.5-1.7l-0.8,1.9
				C13.5,14.3,15.1,16.4,16,17z"/>
		</g>
		<g>
			<polygon points="14.6,12.4 16,14 17.4,13.4 16.1,12.3 			"/>
		</g>
		<g>
			<path d="M19.4,14.8c0.1-0.8-0.4-1.5-0.7-1.9l-2.5,1.2C16.2,14.1,18.4,14.9,19.4,14.8z"/>
		</g>
		<g>
			<polygon points="20.5,13.1 19.3,10.1 19.8,14.3 			"/>
		</g>
		<g>
			<path d="M17.5,11.3c0,0,1.9,1.9,2,3c-0.1-1.4-0.3-3.8-0.5-4.1L17.5,11.3z"/>
		</g>
		<g>
			<path d="M19.6,14.3c0,0.1,0,0.2,0,0.2C19.6,14.5,19.6,14.4,19.6,14.3z"/>
		</g>
		<g>
			<path d="M13.4,14.3l1-2l1.8-0.1l1.3,1.2l1.1-0.6c0,0-1.6-1.9-1.9-2c-0.2-0.1-1.6,0.3-3,0.6C12.9,13,13.4,14.3,13.4,14.3z"/>
		</g>
		<g>
			<polygon points="16.7,10.6 17.3,11.1 16.9,10.5 13.6,9.3 13.7,11.3 			"/>
		</g>
		<g>
			<path d="M13.5,9.3l0,0.2L9,13.3l2.4,4.8c0-4.5,2.1-6.8,2.1-6.8L13.5,9.3z"/>
		</g>
		<g>
			<path d="M13,23.3c0,0,0.2,1,0.4,2.6c9.2-0.6,11.9,0,11.9,0l-2.9-3.8C20.6,23.8,13,23.3,13,23.3z"/>
		</g>
		<g>
			<path d="M22.5,18c-4.3,0.2-6.7-0.8-6.7-0.8s-1.5-1.6-2.3-2.4c-0.8-1.1-0.2-2.9-0.2-2.9c-1.8,2.6-1.7,6-1.7,6.4
				c0,0.3,0.9,2,1.9,4.1c1.9,1.8,8.3,0.3,8.5-0.2c0.5-0.2,5.5-4.6,5.5-4.6l-1.6,0.7C25.8,18.3,24.8,18.3,22.5,18z"/>
		</g>
		<g>
			<g>
				<path d="M14.1,6.6c-0.6-0.3-5.9,0.7-5.9,0.7L7.5,9.8l0.3,4.6l-2.2,0.9l3.1-0.8l0.2-1.4l4.7-4.1l3.4,1.3c0,0,0.2,0.5,0.4,0.7
					c0.1,0,1.8-1.1,1.8-1.1S14.6,6.9,14.1,6.6z"/>
			</g>
			<g>
				<path d="M8.7,14.7l-3.3,0.8c-0.5,0.4-1.1,5-1.4,6.2c2.5,0.2,7.8,1.9,7.8,1.9s0,0,0.9-0.3c-0.2-0.6-3.6-3.9-3.9-4.5
					S8.7,14.7,8.7,14.7z"/>
			</g>
		</g>
		<g>
			<path d="M9,18.5c0.2,0.5,4,4.6,4,4.6s1,0.1,2.1,0.2c-0.9-0.1-1.8-0.6-1.9-0.8C13.1,22.4,9,13.7,9,13.7S8.8,18.1,9,18.5z"/>
		</g>
	</g>
	<g class="st6">
		<g>
			<polygon points="20.6,12.7 23,9.5 22,5.4 19.8,6 16.3,7.6 19.4,9.7 			"/>
		</g>
		<g>
			<path d="M22.7,17.6l1,0.1l2-2.8l1.3-1.2l0.1-0.1c0,0-0.9-3.6-2.3-5.5L22.8,10L22.7,17.6z"/>
		</g>
		<g>
			<polygon points="25.8,15 23.8,17.7 25.9,17.9 27.4,17.2 26.1,14.6 			"/>
		</g>
		<g>
			<path d="M16,16.8c2.1,0.9,6.6,0.8,6.6,0.8l0.2-7.4c0,0-2.3,3-3.2,4.5c-1.1,0.2-3.6-0.8-3.6-0.8l-1.5-1.7l-0.8,1.9
				C13.5,14.1,15.1,16.1,16,16.8z"/>
		</g>
		<g>
			<polygon points="14.6,12.2 16,13.7 17.4,13.2 16.1,12 			"/>
		</g>
		<g>
			<path d="M19.4,14.5c0.1-0.8-0.4-1.5-0.7-1.9l-2.5,1.2C16.2,13.8,18.4,14.6,19.4,14.5z"/>
		</g>
		<g>
			<polygon points="20.5,12.9 19.3,9.8 19.8,14 			"/>
		</g>
		<g>
			<path d="M17.5,11c0,0,1.9,1.9,2,3c-0.1-1.4-0.3-3.8-0.5-4.1L17.5,11z"/>
		</g>
		<g>
			<path d="M19.6,14.1c0,0.1,0,0.2,0,0.2C19.6,14.2,19.6,14.1,19.6,14.1z"/>
		</g>
		<g>
			<path d="M13.4,14l1-2l1.8-0.1l1.3,1.2l1.1-0.6c0,0-1.6-1.9-1.9-2c-0.2-0.1-1.6,0.3-3,0.6C12.9,12.7,13.4,14,13.4,14z"/>
		</g>
		<g>
			<polygon points="16.7,10.4 17.3,10.9 16.9,10.3 13.6,9.1 13.7,11 			"/>
		</g>
		<g>
			<path d="M13.5,9.1l0,0.2L9,13.1l2.4,4.8c0-4.5,2.1-6.8,2.1-6.8L13.5,9.1z"/>
		</g>
		<g>
			<path d="M13,23.1c0,0,0.2,1,0.4,2.6c9.2-0.6,11.9,0,11.9,0l-2.9-3.8C20.6,23.6,13,23.1,13,23.1z"/>
		</g>
		<g>
			<path d="M22.5,17.8C18.2,18,15.8,17,15.8,17s-1.5-1.6-2.3-2.4c-0.8-1.1-0.2-2.9-0.2-2.9c-1.8,2.6-1.7,6-1.7,6.4
				c0,0.3,0.9,2,1.9,4.1c1.9,1.8,8.3,0.3,8.5-0.2c0.5-0.2,5.5-4.6,5.5-4.6l-1.6,0.7C25.8,18.1,24.8,18,22.5,17.8z"/>
		</g>
		<g>
			<g>
				<path d="M14.1,6.4c-0.6-0.3-5.9,0.7-5.9,0.7L7.5,9.5l0.3,4.6l-2.2,0.9l3.1-0.8l0.2-1.4l4.7-4.1l3.4,1.3c0,0,0.2,0.5,0.4,0.7
					c0.1,0,1.8-1.1,1.8-1.1S14.6,6.7,14.1,6.4z"/>
			</g>
			<g>
				<path d="M8.7,14.5l-3.3,0.8c-0.5,0.4-1.1,5-1.4,6.2c2.5,0.2,7.8,1.9,7.8,1.9s0,0,0.9-0.3c-0.2-0.6-3.6-3.9-3.9-4.5
					S8.7,14.5,8.7,14.5z"/>
			</g>
		</g>
		<g>
			<path d="M9,18.3c0.2,0.5,4,4.6,4,4.6s1,0.1,2.1,0.2c-0.9-0.1-1.8-0.6-1.9-0.8C13.1,22.1,9,13.4,9,13.4S8.8,17.8,9,18.3z"/>
		</g>
	</g>
	<g>
		<g>
			<polygon points="19.5,9.4 16.5,7.4 19.8,5.8 21.9,5.3 22.9,9.2 20.6,12.2 			"/>
			<path class="st0" d="M21.8,5.5l0.9,3.7l-2.1,2.7l-1-2.6l0-0.1l-0.1,0l-2.8-1.8L19.9,6L21.8,5.5 M22,5.2l-2.2,0.5l-3.5,1.6
				l3.1,2.1l1.2,3L23,9.3L22,5.2L22,5.2z"/>
		</g>
		<g>
			<path d="M22.8,17.2L23,9.7L24.7,8c1.2,1.8,2,4.8,2.2,5.3l-1.3,1.2l-2,2.8L22.8,17.2z"/>
			<path class="st0" d="M24.7,8.2c1.1,1.7,1.9,4.4,2,5.1l-1.3,1.2l-1.9,2.7L23,17.1l0.1-7.3L24.7,8.2 M24.7,7.8l-1.9,1.9l-0.1,7.6
				l1,0.1l2-2.8l1.3-1.2l0.1-0.1C27,13.3,26.1,9.8,24.7,7.8L24.7,7.8z"/>
		</g>
		<g>
			<polygon points="26.8,13.9 27,13.7 27.3,14.2 			"/>
			<polygon class="st0" points="27,13.5 26.5,13.9 27.7,14.5 27,13.5 			"/>
		</g>
		<g>
			<polygon points="24,17.4 25.9,14.8 26.1,14.6 27.3,16.9 25.8,17.5 			"/>
			<path class="st0" d="M26.1,14.8l1,2l-1.3,0.5l-1.6-0.1l1.7-2.4L26.1,14.8 M26.1,14.3l-0.3,0.4l-2,2.8l2.1,0.1l1.6-0.7L26.1,14.3
				L26.1,14.3z"/>
		</g>
		<g>
			<path d="M22.4,17.2c-0.8,0-4.5,0-6.4-0.8c-0.7-0.5-2-2.2-2.3-2.6l0.7-1.7l1.3,1.5c0.1,0.1,2.2,0.9,3.4,0.9c0.1,0,0.2,0,0.3,0
				l0.1,0l0,0c0.7-1.2,2.3-3.4,3-4.2L22.4,17.2z"/>
			<path class="st0" d="M22.4,10.7l-0.2,6.4c-0.9,0-4.4-0.1-6.2-0.8c-0.7-0.5-1.9-2.1-2.2-2.5l0.6-1.4l1.2,1.4l0,0l0.1,0
				c0.1,0,2.2,0.9,3.4,0.9c0.1,0,0.2,0,0.4,0l0.1,0l0.1-0.1C20.3,13.5,21.7,11.6,22.4,10.7 M22.7,9.9c0,0-2.3,3-3.2,4.5
				c-0.1,0-0.2,0-0.3,0c-1.2,0-3.3-0.8-3.3-0.8l-1.5-1.7l-0.8,1.9c0,0,1.6,2,2.4,2.7c1.9,0.8,5.8,0.8,6.5,0.8c0.1,0,0.1,0,0.1,0
				L22.7,9.9L22.7,9.9z"/>
		</g>
		<g>
			<polygon points="14.8,12 16.1,11.9 17.1,12.9 16,13.3 			"/>
			<path class="st0" d="M16,12l0.9,0.8l-0.8,0.3l-1-1.1L16,12 M16.1,11.8l-1.6,0.1l1.4,1.6l1.4-0.5L16.1,11.8L16.1,11.8z"/>
		</g>
		<g>
			<path d="M19.2,14.2c-0.8,0-2.1-0.4-2.7-0.6l2.2-1C18.9,12.9,19.3,13.5,19.2,14.2C19.3,14.2,19.2,14.2,19.2,14.2z"/>
			<path class="st0" d="M18.7,12.7c0.2,0.3,0.5,0.8,0.5,1.3c-0.6,0-1.6-0.3-2.3-0.5L18.7,12.7 M18.7,12.4l-2.5,1.2c0,0,2,0.7,3,0.7
				c0.1,0,0.1,0,0.2,0C19.5,13.5,19,12.8,18.7,12.4L18.7,12.4z"/>
		</g>
		<g>
			<polygon points="19.5,10.5 20.3,12.6 19.9,13.4 			"/>
			<path class="st0" d="M19.8,11.5l0.4,1.1L19.9,13L19.8,11.5 M19.3,9.6l0.5,4.2l0.7-1.1L19.3,9.6L19.3,9.6z"/>
		</g>
		<g>
			<path d="M19.4,13c-0.5-0.9-1.4-1.9-1.7-2.2L19,9.9C19.2,10.3,19.3,11.7,19.4,13z"/>
			<path class="st0" d="M19,10.1c0.1,0.4,0.2,1.3,0.3,2.3c-0.4-0.7-1-1.3-1.3-1.6L19,10.1 M19.1,9.7l-1.6,1.1c0,0,1.9,1.9,2,3
				C19.5,12.4,19.3,10,19.1,9.7L19.1,9.7z"/>
		</g>
		<g>
			<path d="M19.6,13.8c0,0.1,0,0.2,0,0.2C19.6,14,19.6,13.9,19.6,13.8z"/>
			<path class="st0" d="M19.6,13.8c0,0.1,0,0.2,0,0.2C19.6,14,19.6,13.9,19.6,13.8L19.6,13.8z"/>
		</g>
		<g>
			<path d="M13.4,13.4c-0.1-0.4-0.2-1.3,0.4-2.3c0.4-0.1,0.9-0.2,1.2-0.3c0.7-0.2,1.4-0.3,1.6-0.3c0.2,0.1,1,1,1.8,1.8l-0.9,0.4
				l-1.3-1.1l-2,0.1L13.4,13.4z"/>
			<path class="st0" d="M16.6,10.6c0.2,0.1,0.9,0.9,1.6,1.7l-0.7,0.3l-1.2-1.1l-0.1-0.1l-0.1,0l-1.8,0.1l-0.1,0l-0.1,0.1L13.5,13
				c0-0.5,0-1.1,0.4-1.8c0.4-0.1,0.8-0.2,1.2-0.3C15.8,10.7,16.4,10.6,16.6,10.6L16.6,10.6 M16.6,10.3c-0.4,0-1.6,0.3-2.9,0.7
				c-0.8,1.5-0.3,2.8-0.3,2.8l1-2l1.8-0.1l1.3,1.2l1.1-0.6C18.6,12.3,17,10.4,16.6,10.3C16.7,10.3,16.7,10.3,16.6,10.3L16.6,10.3z"
				/>
		</g>
		<g>
			<polygon points="13.8,9 16.6,10 13.8,10.6 			"/>
			<path class="st0" d="M13.9,9.2l2.2,0.8L14,10.5L13.9,9.2 M13.6,8.8l0.1,2l3-0.7l0.5,0.5L16.9,10L13.6,8.8L13.6,8.8z"/>
		</g>
		<g>
			<path d="M9.2,12.9l4.2-3.6l0.1,1.6c0,0,0,0,0,0c0,0-2,2.2-2.1,6.3L9.2,12.9z"/>
			<path class="st0" d="M13.2,9.5l0.1,1.3c-0.4,0.4-1.9,2.4-2.1,5.9l-1.9-3.7L13.2,9.5 M13.5,8.8l0,0.2L9,12.8l2.4,4.8
				c0-4.5,2.1-6.8,2.1-6.8L13.5,8.8L13.5,8.8z"/>
		</g>
		<g>
			<path d="M13.5,25.3c-0.1-1.2-0.3-2-0.3-2.3c0.3,0,1.1,0.1,2.2,0.1c2.6,0,5.8-0.2,7-1.2l2.6,3.4c-0.6-0.1-1.9-0.2-4.4-0.2
				C18.5,25,16.1,25.1,13.5,25.3z"/>
			<path class="st0" d="M22.3,22l2.3,3.1c-0.7-0.1-2-0.2-4.1-0.2c-2,0-4.3,0.1-7,0.3c-0.1-1-0.2-1.7-0.3-2.1c0.4,0,1.1,0,2,0
				C17.8,23.1,21,22.9,22.3,22 M22.4,21.6c-1.1,1.1-4.7,1.3-7,1.3c-1.3,0-2.3-0.1-2.3-0.1s0.2,1,0.4,2.6c3.1-0.2,5.4-0.3,7.2-0.3
				c3.5,0,4.7,0.3,4.7,0.3L22.4,21.6L22.4,21.6z"/>
		</g>
		<g>
			<path d="M16.6,22.6c-1.5,0-2.6-0.3-3.1-0.8c-0.3-0.7-0.7-1.5-1-2.1c-0.4-0.9-0.9-1.7-0.8-1.9c0,0,0-0.1,0-0.2
				c0.1-2.2,0.5-4,1.3-5.5c-0.1,0.6-0.1,1.6,0.4,2.2c0.7,0.9,2.2,2.4,2.3,2.5c0.1,0.1,2.1,0.9,5.6,0.9c0.4,0,0.8,0,1.2,0
				c2.2,0.2,3.3,0.3,3.3,0.3l0.9-0.4c-2,1.7-4.5,4-4.8,4.1C21.7,21.9,19,22.6,16.6,22.6z"/>
			<path class="st0" d="M12.9,12.7c0,0.6,0.1,1.2,0.5,1.7c0.7,0.9,2.2,2.4,2.3,2.4l0,0l0,0c0.1,0,2,0.8,5.6,0.8c0.4,0,0.8,0,1.2,0
				c2.2,0.2,3.3,0.3,3.3,0.3l0.1,0l0.1,0l0.1,0c-1.8,1.6-3.9,3.4-4.2,3.5l-0.1,0l0,0.1c-0.2,0.2-2.7,0.9-5.1,0.9
				c-1.4,0-2.4-0.3-3-0.7c-0.3-0.8-0.7-1.5-1-2.1c-0.4-0.8-0.8-1.7-0.8-1.8c0,0,0-0.1,0-0.2C11.9,15.7,12.2,14.1,12.9,12.7
				 M13.3,11.5c-1.8,2.6-1.7,6-1.7,6.4c0,0.3,0.9,2,1.9,4.1c0.7,0.6,1.9,0.8,3.2,0.8c2.4,0,5.1-0.7,5.3-1c0.5-0.2,5.5-4.6,5.5-4.6
				l-1.6,0.7c0,0-1.1,0-3.3-0.3c-0.4,0-0.8,0-1.2,0c-3.6,0-5.5-0.8-5.5-0.8s-1.5-1.6-2.3-2.4C12.7,13.2,13.3,11.5,13.3,11.5
				L13.3,11.5z"/>
		</g>
		<g>
			<g>
				<path d="M8,14L7.6,9.3l0.6-2.4c0.6-0.1,4.1-0.7,5.4-0.7c0.3,0,0.4,0,0.4,0c0.5,0.2,4.1,2.7,4.9,3.3c-0.5,0.3-1.2,0.8-1.5,1
					c-0.1-0.2-0.3-0.6-0.3-0.6l-3.6-1.4l-4.8,4.1L8.6,14l-1.5,0.4L8,14z"/>
				<path class="st0" d="M13.6,6.3c0.3,0,0.3,0,0.3,0c0.4,0.2,3.1,2,4.8,3.1c-0.5,0.3-1,0.6-1.2,0.8c-0.1-0.2-0.2-0.4-0.2-0.5l0-0.1
					l-0.1,0l-3.4-1.3l-0.1-0.1l-0.1,0.1l-4.7,4.1l-0.1,0.1l0,0.1l-0.1,1.2L8.1,14l0-0.1L7.8,9.3L8.4,7C9.1,6.9,12.4,6.3,13.6,6.3
					 M13.6,6.1c-1.4,0-5.5,0.7-5.5,0.7L7.5,9.3l0.3,4.6l-2.2,0.9l3.1-0.8l0.2-1.4l4.7-4.1L17,10c0,0,0.2,0.5,0.4,0.7
					c0.1,0,1.8-1.1,1.8-1.1s-4.5-3.1-5.1-3.4C14,6.1,13.8,6.1,13.6,6.1L13.6,6.1z"/>
			</g>
			<g>
				<path d="M11.9,23c-0.5-0.2-5.2-1.6-7.6-1.9c0.1-0.4,0.2-1,0.3-1.7c0.3-1.6,0.7-4,1-4.3l3-0.7c0,0.8-0.1,3.4,0.2,4
					c0.1,0.3,0.9,1.1,1.7,2c0.8,0.9,1.9,2,2.1,2.4L11.9,23z"/>
				<path class="st0" d="M8.5,14.6c0,1,0,3.3,0.2,3.9c0.1,0.3,0.7,0.9,1.7,2c0.7,0.8,1.7,1.8,2,2.3l-0.6,0.2c-0.7-0.2-5-1.6-7.5-1.9
					c0.1-0.4,0.2-1,0.3-1.6c0.2-1.3,0.7-3.8,0.9-4.2L8.5,14.6 M8.7,14.2L5.5,15c-0.5,0.4-1.1,5-1.4,6.2c2.5,0.2,7.8,1.9,7.8,1.9
					s0,0,0.9-0.3c-0.2-0.6-3.6-3.9-3.9-4.5S8.7,14.2,8.7,14.2L8.7,14.2z"/>
			</g>
		</g>
		<g>
			<path d="M13.9,22.5c-0.5,0-0.9-0.1-0.9-0.1c-1.5-1.6-3.8-4.1-3.9-4.5c-0.1-0.3-0.1-2.6,0-4.3c1,2.1,4,8.3,4.1,8.4
				C13.2,22.2,13.5,22.4,13.9,22.5z"/>
			<path class="st0" d="M9.2,14.2c1.6,3.3,3.8,7.9,3.9,8c0,0.1,0.1,0.1,0.3,0.2c-0.1,0-0.1,0-0.2,0c-1.8-1.9-3.8-4.1-3.9-4.4
				C9.1,17.7,9.1,16,9.2,14.2 M9,13.2c0,0-0.2,4.4,0,4.9c0.2,0.5,4,4.6,4,4.6s1,0.1,2.1,0.2c-0.9-0.1-1.8-0.6-1.9-0.8
				C13.1,21.9,9,13.2,9,13.2L9,13.2z"/>
		</g>
	</g>
</g>
<g>
	<g>
		<circle class="st0" cx="-123.2" cy="99.7" r="10.7"/>
		<g class="st1">
			<path class="st2" d="M-123.2,88.9c5.9,0,10.7,4.8,10.7,10.7s-4.8,10.7-10.7,10.7c-5.9,0-10.7-4.8-10.7-10.7
				S-129.2,88.9-123.2,88.9 M-123.2,87.9c-6.5,0-11.7,5.3-11.7,11.7s5.3,11.7,11.7,11.7s11.7-5.3,11.7-11.7S-116.8,87.9-123.2,87.9
				L-123.2,87.9z"/>
		</g>
	</g>
	<g>
		<g class="st1">
			<linearGradient id="SVGID_9_" gradientUnits="userSpaceOnUse" x1="-123.2482" y1="88.9347" x2="-123.2482" y2="110.3722">
				<stop  offset="0" style="stop-color:#FFFFFF"/>
				<stop  offset="0.2054" style="stop-color:#F5F5F5"/>
				<stop  offset="0.559" style="stop-color:#EBEBEB"/>
				<stop  offset="1" style="stop-color:#E8E8E8"/>
			</linearGradient>
			<path class="st14" d="M-123.2,89.9c5.4,0,9.7,4.4,9.7,9.7s-4.4,9.7-9.7,9.7s-9.7-4.4-9.7-9.7S-128.6,89.9-123.2,89.9
				 M-123.2,88.9c-5.9,0-10.7,4.8-10.7,10.7s4.8,10.7,10.7,10.7c5.9,0,10.7-4.8,10.7-10.7S-117.3,88.9-123.2,88.9L-123.2,88.9z"/>
		</g>
	</g>
	<g>
		<g class="st1">
			<linearGradient id="SVGID_10_" gradientUnits="userSpaceOnUse" x1="-123.2482" y1="110.3722" x2="-123.2482" y2="88.9347">
				<stop  offset="0" style="stop-color:#FFFFFF"/>
				<stop  offset="0.2054" style="stop-color:#F5F5F5"/>
				<stop  offset="0.559" style="stop-color:#EBEBEB"/>
				<stop  offset="1" style="stop-color:#E8E8E8"/>
			</linearGradient>
			<path class="st15" d="M-123.2,89.9c5.4,0,9.7,4.4,9.7,9.7s-4.4,9.7-9.7,9.7s-9.7-4.4-9.7-9.7S-128.6,89.9-123.2,89.9
				 M-123.2,88.9c-5.9,0-10.7,4.8-10.7,10.7s4.8,10.7,10.7,10.7c5.9,0,10.7-4.8,10.7-10.7S-117.3,88.9-123.2,88.9L-123.2,88.9z"/>
		</g>
	</g>
</g>
<g>
	<g class="st5">
		<g>
			<polygon points="-119.8,97.4 -118,95 -118.7,91.9 -120.4,92.3 -123,93.6 -120.7,95.1 			"/>
		</g>
		<g>
			<path d="M-118.2,101l0.7,0.1l1.5-2.1l1-0.9l0,0c0,0-0.7-2.7-1.7-4.1l-1.4,1.4L-118.2,101z"/>
		</g>
		<g>
			<polygon points="-115.9,99.1 -117.4,101.1 -115.8,101.2 -114.7,100.8 -115.7,98.8 			"/>
		</g>
		<g>
			<path d="M-123.3,100.4c1.6,0.7,4.9,0.6,4.9,0.6l0.1-5.6c0,0-1.7,2.3-2.4,3.4c-0.8,0.1-2.7-0.6-2.7-0.6l-1.1-1.3l-0.6,1.4
				C-125.1,98.4-123.9,99.9-123.3,100.4z"/>
		</g>
		<g>
			<polygon points="-124.3,97 -123.3,98.1 -122.2,97.7 -123.2,96.9 			"/>
		</g>
		<g>
			<path d="M-120.7,98.8c0.1-0.6-0.3-1.2-0.5-1.4l-1.9,0.9C-123.1,98.2-121.4,98.8-120.7,98.8z"/>
		</g>
		<g>
			<polygon points="-119.9,97.5 -120.8,95.2 -120.4,98.3 			"/>
		</g>
		<g>
			<path d="M-122.1,96.1c0,0,1.4,1.4,1.5,2.3c-0.1-1.1-0.2-2.8-0.4-3.1L-122.1,96.1z"/>
		</g>
		<g>
			<path d="M-120.6,98.4c0,0.1,0,0.1,0,0.2C-120.6,98.5-120.6,98.4-120.6,98.4z"/>
		</g>
		<g>
			<path d="M-125.2,98.3l0.7-1.5l1.3-0.1l1,0.9l0.8-0.4c0,0-1.2-1.4-1.4-1.5c-0.2-0.1-1.2,0.2-2.3,0.5
				C-125.6,97.4-125.2,98.3-125.2,98.3z"/>
		</g>
		<g>
			<polygon points="-122.7,95.6 -122.3,96 -122.6,95.6 -125,94.6 -125,96.1 			"/>
		</g>
		<g>
			<path d="M-125.1,94.7l0,0.1l-3.3,2.9l1.8,3.6c0-3.3,1.6-5.1,1.6-5.1L-125.1,94.7z"/>
		</g>
		<g>
			<path d="M-125.5,105.2c0,0,0.1,0.8,0.3,1.9c6.9-0.5,8.9,0,8.9,0l-2.2-2.8C-119.8,105.5-125.5,105.2-125.5,105.2z"/>
		</g>
		<g>
			<path d="M-118.4,101.2c-3.2,0.2-5-0.6-5-0.6s-1.1-1.2-1.7-1.8c-0.6-0.8-0.2-2.1-0.2-2.1c-1.4,1.9-1.3,4.5-1.3,4.8
				c0,0.3,0.7,1.5,1.4,3.1c1.4,1.3,6.2,0.2,6.4-0.1c0.4-0.2,4.1-3.5,4.1-3.5l-1.2,0.5C-115.9,101.4-116.7,101.4-118.4,101.2z"/>
		</g>
		<g>
			<g>
				<path d="M-124.7,92.6c-0.4-0.2-4.4,0.5-4.4,0.5l-0.5,1.9l0.2,3.5l-1.6,0.7l2.3-0.6l0.1-1l3.5-3.1l2.6,1c0,0,0.2,0.4,0.3,0.5
					c0.1,0,1.3-0.8,1.3-0.8S-124.3,92.8-124.7,92.6z"/>
			</g>
			<g>
				<path d="M-128.7,98.7l-2.4,0.6c-0.4,0.3-0.8,3.8-1,4.7c1.9,0.1,5.8,1.4,5.8,1.4s0,0,0.7-0.2c-0.1-0.5-2.7-2.9-2.9-3.4
					C-128.8,101.3-128.7,98.7-128.7,98.7z"/>
			</g>
		</g>
		<g>
			<path d="M-128.5,101.6c0.1,0.4,3,3.4,3,3.4s0.7,0,1.6,0.1c-0.6-0.1-1.3-0.5-1.4-0.6s-3.2-6.6-3.2-6.6S-128.7,101.2-128.5,101.6z"
				/>
		</g>
	</g>
	<g class="st6">
		<g>
			<polygon points="-119.8,97.2 -118,94.8 -118.7,91.7 -120.4,92.1 -123,93.4 -120.7,94.9 			"/>
		</g>
		<g>
			<path d="M-118.2,100.8l0.7,0.1l1.5-2.1l1-0.9l0,0c0,0-0.7-2.7-1.7-4.1l-1.4,1.4L-118.2,100.8z"/>
		</g>
		<g>
			<polygon points="-115.9,98.9 -117.4,101 -115.8,101.1 -114.7,100.6 -115.7,98.6 			"/>
		</g>
		<g>
			<path d="M-123.3,100.2c1.6,0.7,4.9,0.6,4.9,0.6l0.1-5.6c0,0-1.7,2.3-2.4,3.4c-0.8,0.1-2.7-0.6-2.7-0.6l-1.1-1.3l-0.6,1.4
				C-125.1,98.2-123.9,99.8-123.3,100.2z"/>
		</g>
		<g>
			<polygon points="-124.3,96.8 -123.3,97.9 -122.2,97.5 -123.2,96.7 			"/>
		</g>
		<g>
			<path d="M-120.7,98.6c0.1-0.6-0.3-1.2-0.5-1.4l-1.9,0.9C-123.1,98-121.4,98.6-120.7,98.6z"/>
		</g>
		<g>
			<polygon points="-119.9,97.3 -120.8,95 -120.4,98.2 			"/>
		</g>
		<g>
			<path d="M-122.1,95.9c0,0,1.4,1.4,1.5,2.3c-0.1-1.1-0.2-2.8-0.4-3.1L-122.1,95.9z"/>
		</g>
		<g>
			<path d="M-120.6,98.2c0,0.1,0,0.1,0,0.2C-120.6,98.3-120.6,98.3-120.6,98.2z"/>
		</g>
		<g>
			<path d="M-125.2,98.2l0.7-1.5l1.3-0.1l1,0.9l0.8-0.4c0,0-1.2-1.4-1.4-1.5c-0.2-0.1-1.2,0.2-2.3,0.5
				C-125.6,97.2-125.2,98.2-125.2,98.2z"/>
		</g>
		<g>
			<polygon points="-122.7,95.4 -122.3,95.8 -122.6,95.4 -125,94.5 -125,95.9 			"/>
		</g>
		<g>
			<path d="M-125.1,94.5l0,0.1l-3.3,2.9l1.8,3.6c0-3.3,1.6-5.1,1.6-5.1L-125.1,94.5z"/>
		</g>
		<g>
			<path d="M-125.5,105c0,0,0.1,0.8,0.3,1.9c6.9-0.5,8.9,0,8.9,0l-2.2-2.8C-119.8,105.3-125.5,105-125.5,105z"/>
		</g>
		<g>
			<path d="M-118.4,101c-3.2,0.2-5-0.6-5-0.6s-1.1-1.2-1.7-1.8c-0.6-0.8-0.2-2.1-0.2-2.1c-1.4,1.9-1.3,4.5-1.3,4.8
				c0,0.3,0.7,1.5,1.4,3.1c1.4,1.3,6.2,0.2,6.4-0.1c0.4-0.2,4.1-3.5,4.1-3.5l-1.2,0.5C-115.9,101.2-116.7,101.2-118.4,101z"/>
		</g>
		<g>
			<g>
				<path d="M-124.7,92.4c-0.4-0.2-4.4,0.5-4.4,0.5l-0.5,1.9l0.2,3.5L-131,99l2.3-0.6l0.1-1l3.5-3.1l2.6,1c0,0,0.2,0.4,0.3,0.5
					c0.1,0,1.3-0.8,1.3-0.8S-124.3,92.7-124.7,92.4z"/>
			</g>
			<g>
				<path d="M-128.7,98.5l-2.4,0.6c-0.4,0.3-0.8,3.8-1,4.7c1.9,0.1,5.8,1.4,5.8,1.4s0,0,0.7-0.2c-0.1-0.5-2.7-2.9-2.9-3.4
					C-128.8,101.1-128.7,98.5-128.7,98.5z"/>
			</g>
		</g>
		<g>
			<path d="M-128.5,101.4c0.1,0.4,3,3.4,3,3.4s0.7,0,1.6,0.1c-0.6-0.1-1.3-0.5-1.4-0.6s-3.2-6.6-3.2-6.6S-128.7,101-128.5,101.4z"/>
		</g>
	</g>
	<g>
		<g>
			<polygon points="-120.6,94.7 -122.8,93.2 -120.4,92.1 -118.8,91.7 -118.1,94.6 -119.8,96.7 			"/>
			<path class="st0" d="M-118.9,91.8l0.7,2.7l-1.5,1.9l-0.7-1.8l0-0.1l-0.1,0l-2-1.3l2.2-1L-118.9,91.8 M-118.7,91.5l-1.7,0.4
				l-2.6,1.2l2.4,1.6l0.9,2.2l1.8-2.4L-118.7,91.5L-118.7,91.5z"/>
		</g>
		<g>
			<path d="M-118.1,100.5l0.1-5.6l1.3-1.2c0.9,1.3,1.5,3.5,1.6,3.9l-1,0.9l-1.5,2.1L-118.1,100.5z"/>
			<path class="st0" d="M-116.7,93.9c0.8,1.2,1.3,3.1,1.5,3.7l-0.9,0.9l-1.4,2l-0.4,0l0.1-5.4L-116.7,93.9 M-116.7,93.5l-1.4,1.4
				l-0.1,5.7l0.7,0.1l1.5-2.1l1-0.9l0,0C-115,97.7-115.6,95-116.7,93.5L-116.7,93.5z"/>
		</g>
		<g>
			<polygon points="-117.2,100.7 -115.8,98.8 -115.7,98.6 -114.8,100.3 -115.9,100.7 			"/>
			<path class="st0" d="M-115.7,98.9l0.7,1.4l-0.9,0.4l-1-0.1L-115.7,98.9L-115.7,98.9 M-115.7,98.4l-0.3,0.3l-1.5,2.1l1.5,0.1
				l1.2-0.5L-115.7,98.4L-115.7,98.4z"/>
		</g>
		<g>
			<path d="M-118.5,100.5c-0.7,0-3.4,0-4.8-0.6c-0.5-0.4-1.5-1.6-1.7-1.9l0.5-1.2l1,1.1c0.1,0.1,1.7,0.7,2.6,0.7c0.1,0,0.2,0,0.3,0
				l0.1,0l0,0c0.5-0.9,1.7-2.4,2.2-3.1L-118.5,100.5z"/>
			<path class="st0" d="M-118.5,95.9l-0.1,4.6c-0.7,0-3.3-0.1-4.5-0.6c-0.5-0.4-1.4-1.5-1.6-1.8l0.4-0.9l0.8,1l0,0l0.1,0
				c0.1,0,1.7,0.7,2.6,0.7c0.1,0,0.2,0,0.3,0l0.1,0l0.1-0.1C-120,97.9-119.1,96.6-118.5,95.9 M-118.2,95.1c0,0-1.7,2.3-2.4,3.4
				c-0.1,0-0.1,0-0.2,0c-0.9,0-2.5-0.6-2.5-0.6l-1.1-1.3l-0.6,1.4c0,0,1.2,1.5,1.8,2c1.4,0.6,4.4,0.6,4.8,0.6c0,0,0.1,0,0.1,0
				L-118.2,95.1L-118.2,95.1z"/>
		</g>
		<g>
			<polygon points="-124.1,96.7 -123.2,96.6 -122.5,97.3 -123.2,97.6 			"/>
			<path class="st0" d="M-123.3,96.7l0.6,0.5l-0.5,0.2l-0.6-0.7L-123.3,96.7 M-123.2,96.5l-1.2,0.1l1.1,1.2l1-0.4L-123.2,96.5
				L-123.2,96.5z"/>
		</g>
		<g>
			<path d="M-120.8,98.3c-0.5,0-1.5-0.3-1.9-0.4l1.5-0.7C-121,97.4-120.8,97.8-120.8,98.3C-120.8,98.3-120.8,98.3-120.8,98.3z"/>
			<path class="st0" d="M-121.3,97.3c0.2,0.2,0.3,0.5,0.3,0.8c-0.4,0-1-0.2-1.5-0.3L-121.3,97.3 M-121.2,97l-1.9,0.9
				c0,0,1.5,0.5,2.3,0.5c0,0,0.1,0,0.1,0C-120.6,97.8-121,97.2-121.2,97L-121.2,97z"/>
		</g>
		<g>
			<polygon points="-120.5,95.8 -120,97.1 -120.3,97.6 			"/>
			<path class="st0" d="M-120.3,96.7l0.1,0.4l-0.1,0.1L-120.3,96.7 M-120.8,94.8l0.4,3.1l0.5-0.9L-120.8,94.8L-120.8,94.8z"/>
		</g>
		<g>
			<path d="M-120.7,97.2c-0.4-0.6-0.9-1.2-1.2-1.5l0.9-0.6C-120.9,95.5-120.8,96.4-120.7,97.2z"/>
			<path class="st0" d="M-121.1,95.3c0.1,0.3,0.1,0.8,0.2,1.4c-0.3-0.4-0.6-0.8-0.8-1L-121.1,95.3 M-120.9,94.9l-1.2,0.8
				c0,0,1.4,1.4,1.5,2.3C-120.6,96.9-120.8,95.2-120.9,94.9L-120.9,94.9z"/>
		</g>
		<g>
			<path d="M-120.6,98c0,0.1,0,0.1,0,0.2C-120.6,98.1-120.6,98.1-120.6,98z"/>
			<path class="st0" d="M-120.6,98c0,0.1,0,0.1,0,0.2C-120.6,98.1-120.6,98.1-120.6,98L-120.6,98z"/>
		</g>
		<g>
			<path d="M-125.2,97.6c-0.1-0.3-0.1-1,0.3-1.6c0.3-0.1,0.6-0.2,0.9-0.2c0.6-0.1,1-0.3,1.2-0.3c0.1,0.1,0.7,0.7,1.3,1.3l-0.6,0.3
				l-0.9-0.8l-1.5,0L-125.2,97.6z"/>
			<path class="st0" d="M-122.8,95.6c0.2,0.1,0.6,0.6,1.1,1.2l-0.4,0.2l-0.9-0.8l-0.1-0.1l-0.1,0l-1.3,0.1l-0.1,0l-0.1,0.1l-0.4,0.8
				c0-0.3,0.1-0.7,0.3-1.1c0.3-0.1,0.6-0.1,0.9-0.2C-123.4,95.8-123,95.6-122.8,95.6 M-122.8,95.4c-0.3,0-1.2,0.3-2.2,0.5
				c-0.6,1.1-0.2,2.1-0.2,2.1l0.7-1.5l1.3-0.1l1,0.9l0.8-0.4C-121.3,96.9-122.5,95.5-122.8,95.4C-122.7,95.4-122.7,95.4-122.8,95.4
				L-122.8,95.4z"/>
		</g>
		<g>
			<polygon points="-124.9,94.4 -122.9,95.2 -124.8,95.6 			"/>
			<path class="st0" d="M-124.8,94.6l1.4,0.5l-1.3,0.3L-124.8,94.6 M-125,94.3l0.1,1.5l2.3-0.5l0.4,0.4l-0.3-0.4L-125,94.3
				L-125,94.3z"/>
		</g>
		<g>
			<path d="M-128.3,97.3l3.1-2.7l0,1.1c0,0-1.5,1.6-1.6,4.6L-128.3,97.3z"/>
			<path class="st0" d="M-125.4,94.9l0,0.8c-0.3,0.3-1.3,1.8-1.6,4.2l-1.3-2.6L-125.4,94.9 M-125.1,94.3l0,0.1l-3.3,2.9l1.8,3.6
				c0-3.3,1.6-5.1,1.6-5.1L-125.1,94.3L-125.1,94.3z"/>
		</g>
		<g>
			<path d="M-125.1,106.6c-0.1-0.8-0.2-1.4-0.2-1.7c0.3,0,0.9,0,1.6,0c1.9,0,4.3-0.2,5.3-0.9l1.9,2.5c-0.5-0.1-1.4-0.2-3.2-0.2
				C-121.4,106.4-123.1,106.5-125.1,106.6z"/>
			<path class="st0" d="M-118.5,104.2l1.6,2.2c-0.5-0.1-1.5-0.1-3-0.1c-1.5,0-3.2,0.1-5.2,0.2c-0.1-0.6-0.1-1.1-0.2-1.4
				c0.3,0,0.8,0,1.4,0C-121.9,105.1-119.6,104.9-118.5,104.2 M-118.5,103.9c-0.8,0.8-3.5,0.9-5.3,0.9c-1,0-1.7,0-1.7,0
				s0.1,0.8,0.3,1.9c2.3-0.2,4.1-0.2,5.4-0.2c2.6,0,3.5,0.2,3.5,0.2L-118.5,103.9L-118.5,103.9z"/>
		</g>
		<g>
			<path d="M-122.8,104.6c-1.1,0-1.9-0.2-2.3-0.6c-0.2-0.5-0.5-1.1-0.7-1.5c-0.3-0.6-0.6-1.3-0.6-1.4c0,0,0-0.1,0-0.2
				c0.1-1.6,0.4-2.9,0.9-3.9c0,0.5,0,1.1,0.3,1.5c0.6,0.7,1.7,1.8,1.7,1.8c0.1,0.1,1.6,0.7,4.2,0.7c0.3,0,0.6,0,0.9,0
				c1.7,0.2,2.5,0.2,2.5,0.2l0.5-0.2c-1.5,1.3-3.3,2.8-3.5,2.9C-119.1,104.1-121,104.6-122.8,104.6z"/>
			<path class="st0" d="M-125.7,97.5c0,0.4,0.1,0.7,0.4,1.1c0.6,0.6,1.7,1.8,1.7,1.8l0,0l0,0c0.1,0,1.5,0.6,4.2,0.6
				c0.3,0,0.6,0,0.9,0c1.4,0.2,2.2,0.2,2.4,0.2c-1.3,1.1-2.7,2.4-2.9,2.5l0,0l0,0.1c-0.2,0.2-2,0.7-3.8,0.7c-1,0-1.8-0.2-2.2-0.5
				c-0.3-0.6-0.5-1.1-0.7-1.5c-0.3-0.6-0.6-1.2-0.6-1.3c0,0,0-0.1,0-0.2C-126.3,99.6-126.1,98.4-125.7,97.5 M-125.3,96.2
				c-1.4,1.9-1.3,4.5-1.3,4.8c0,0.3,0.7,1.5,1.4,3.1c0.5,0.5,1.4,0.6,2.4,0.6c1.8,0,3.9-0.6,4-0.8c0.4-0.2,4.1-3.5,4.1-3.5l-1.2,0.5
				c0,0-0.8,0-2.5-0.2c-0.3,0-0.6,0-0.9,0c-2.7,0-4.1-0.6-4.1-0.6s-1.1-1.2-1.7-1.8C-125.7,97.6-125.3,96.2-125.3,96.2L-125.3,96.2z
				"/>
		</g>
		<g>
			<g>
				<path d="M-129.2,98.2l-0.2-3.5l0.5-1.7c0.5-0.1,3-0.5,4-0.5c0.2,0,0.3,0,0.3,0c0.4,0.2,3,2,3.7,2.4c-0.4,0.2-0.8,0.6-1,0.7
					c-0.1-0.2-0.2-0.4-0.2-0.4l-2.7-1.1l-3.6,3.1l-0.1,1l-0.8,0.2L-129.2,98.2z"/>
				<path class="st0" d="M-125,92.5c0.2,0,0.2,0,0.2,0c0,0,0,0,0,0c0.3,0.2,2.4,1.6,3.5,2.3c-0.3,0.2-0.6,0.4-0.8,0.5
					c-0.1-0.1-0.1-0.2-0.1-0.3l0-0.1l-0.1,0l-2.6-1l-0.1-0.1l-0.1,0.1l-3.5,3.1l-0.1,0.1l0,0.1l-0.1,0.9l-0.2,0.1v0l-0.2-3.4
					l0.4-1.7C-128.3,92.9-125.9,92.5-125,92.5 M-125,92.2c-1.1,0-4.1,0.5-4.1,0.5l-0.5,1.9l0.2,3.5l-1.6,0.7l2.3-0.6l0.1-1l3.5-3.1
					l2.6,1c0,0,0.2,0.4,0.3,0.5c0.1,0,1.3-0.8,1.3-0.8s-3.4-2.3-3.8-2.5C-124.7,92.2-124.9,92.2-125,92.2L-125,92.2z"/>
			</g>
			<g>
				<path d="M-126.3,104.9c-0.4-0.1-3.8-1.2-5.7-1.4c0.1-0.3,0.1-0.8,0.2-1.3c0.2-1.1,0.5-3,0.7-3.2l2.2-0.5c0,0.6,0,2.6,0.2,3
					c0.1,0.2,0.6,0.8,1.3,1.5c0.6,0.7,1.3,1.4,1.6,1.8L-126.3,104.9z"/>
				<path class="st0" d="M-129,98.6c0,0.8,0,2.5,0.2,2.9c0.1,0.2,0.6,0.7,1.3,1.5c0.5,0.5,1.2,1.3,1.5,1.6l-0.3,0.1
					c-0.6-0.2-3.7-1.2-5.5-1.4c0.1-0.3,0.1-0.7,0.2-1.1c0.2-1,0.5-2.8,0.7-3.1L-129,98.6 M-128.7,98.3l-2.4,0.6
					c-0.4,0.3-0.8,3.8-1,4.7c1.9,0.1,5.8,1.4,5.8,1.4s0,0,0.7-0.2c-0.1-0.5-2.7-2.9-2.9-3.4S-128.7,98.3-128.7,98.3L-128.7,98.3z"/>
			</g>
		</g>
		<g>
			<path d="M-125.5,104.5c-1-1.1-2.8-3.1-2.9-3.3c-0.1-0.2-0.1-1.9,0-3.1c0.9,1.9,2.9,6.1,3,6.2c0.1,0.1,0.2,0.2,0.4,0.3
				C-125.3,104.5-125.5,104.5-125.5,104.5z"/>
			<path class="st0" d="M-128.3,98.6c1.5,3.1,2.4,5,2.7,5.6c-1.1-1.2-2.6-2.8-2.7-3C-128.3,100.9-128.3,99.8-128.3,98.6
				 M-128.5,97.5c0,0-0.1,3.3,0,3.7c0.1,0.4,3,3.4,3,3.4s0.7,0,1.6,0.1c-0.6-0.1-1.3-0.5-1.4-0.6S-128.5,97.5-128.5,97.5
				L-128.5,97.5z"/>
		</g>
	</g>
</g>
<line class="st7" x1="-131.1" y1="98.8" x2="-128.6" y2="98.3"/>
<line class="st7" x1="-130.6" y1="97.3" x2="-130.6" y2="97.4"/>
<g>
	<g>
		<circle class="st0" cx="-49.5" cy="101.3" r="7.1"/>
		<g class="st1">
			<path class="st2" d="M-49.5,94.2c3.9,0,7.1,3.2,7.1,7.1c0,3.9-3.2,7.1-7.1,7.1s-7.1-3.2-7.1-7.1C-56.6,97.4-53.4,94.2-49.5,94.2
				 M-49.5,93.2c-4.5,0-8.1,3.7-8.1,8.1s3.7,8.1,8.1,8.1s8.1-3.7,8.1-8.1S-45,93.2-49.5,93.2L-49.5,93.2z"/>
		</g>
	</g>
	<g>
		<g class="st1">
			<linearGradient id="SVGID_11_" gradientUnits="userSpaceOnUse" x1="-49.5" y1="94.1898" x2="-49.5" y2="108.4815">
				<stop  offset="0" style="stop-color:#FFFFFF"/>
				<stop  offset="0.2054" style="stop-color:#F5F5F5"/>
				<stop  offset="0.559" style="stop-color:#EBEBEB"/>
				<stop  offset="1" style="stop-color:#E8E8E8"/>
			</linearGradient>
			<path class="st16" d="M-49.5,95.2c3.4,0,6.1,2.8,6.1,6.1s-2.8,6.1-6.1,6.1s-6.1-2.8-6.1-6.1S-52.9,95.2-49.5,95.2 M-49.5,94.2
				c-3.9,0-7.1,3.2-7.1,7.1c0,3.9,3.2,7.1,7.1,7.1s7.1-3.2,7.1-7.1C-42.4,97.4-45.6,94.2-49.5,94.2L-49.5,94.2z"/>
		</g>
	</g>
	<g>
		<g class="st1">
			<linearGradient id="SVGID_12_" gradientUnits="userSpaceOnUse" x1="-49.5" y1="108.4815" x2="-49.5" y2="94.1898">
				<stop  offset="0" style="stop-color:#FFFFFF"/>
				<stop  offset="0.2054" style="stop-color:#F5F5F5"/>
				<stop  offset="0.559" style="stop-color:#EBEBEB"/>
				<stop  offset="1" style="stop-color:#E8E8E8"/>
			</linearGradient>
			<path class="st17" d="M-49.5,95.2c3.4,0,6.1,2.8,6.1,6.1s-2.8,6.1-6.1,6.1s-6.1-2.8-6.1-6.1S-52.9,95.2-49.5,95.2 M-49.5,94.2
				c-3.9,0-7.1,3.2-7.1,7.1c0,3.9,3.2,7.1,7.1,7.1s7.1-3.2,7.1-7.1C-42.4,97.4-45.6,94.2-49.5,94.2L-49.5,94.2z"/>
		</g>
	</g>
</g>
<g>
	<g class="st5">
		<g>
			<polygon points="-47.2,99.8 -46,98.2 -46.5,96.2 -47.6,96.4 -49.4,97.3 -47.8,98.3 			"/>
		</g>
		<g>
			<path d="M-46.2,102.3l0.5,0.1l1-1.4l0.7-0.6l0,0c0,0-0.4-1.8-1.1-2.8l-1,1L-46.2,102.3z"/>
		</g>
		<g>
			<polygon points="-44.6,100.9 -45.6,102.3 -44.6,102.4 -43.8,102.1 -44.4,100.8 			"/>
		</g>
		<g>
			<path d="M-49.5,101.8c1.1,0.4,3.3,0.4,3.3,0.4l0.1-3.7c0,0-1.2,1.5-1.6,2.3c-0.5,0.1-1.8-0.4-1.8-0.4l-0.7-0.8l-0.4,1
				C-50.7,100.5-49.9,101.5-49.5,101.8z"/>
		</g>
		<g>
			<polygon points="-50.2,99.5 -49.5,100.3 -48.8,100.1 -49.4,99.5 			"/>
		</g>
		<g>
			<path d="M-47.8,100.7c0.1-0.4-0.2-0.8-0.3-0.9l-1.3,0.6C-49.4,100.4-48.3,100.8-47.8,100.7z"/>
		</g>
		<g>
			<polygon points="-47.3,99.9 -47.9,98.4 -47.6,100.5 			"/>
		</g>
		<g>
			<path d="M-48.7,99c0,0,0.9,0.9,1,1.5c0-0.7-0.1-1.9-0.2-2.1L-48.7,99z"/>
		</g>
		<g>
			<path d="M-47.7,100.5c0,0,0,0.1,0,0.1C-47.7,100.6-47.7,100.5-47.7,100.5z"/>
		</g>
		<g>
			<path d="M-50.8,100.5l0.5-1l0.9,0l0.7,0.6l0.6-0.3c0,0-0.8-1-0.9-1c-0.1,0-0.8,0.2-1.5,0.3C-51.1,99.8-50.8,100.5-50.8,100.5z"/>
		</g>
		<g>
			<polygon points="-49.1,98.6 -48.9,98.9 -49,98.6 -50.7,98 -50.6,99 			"/>
		</g>
		<g>
			<path d="M-50.8,98L-50.8,98l-2.2,2l1.2,2.4c0-2.2,1.1-3.4,1.1-3.4L-50.8,98z"/>
		</g>
		<g>
			<path d="M-51,105c0,0,0.1,0.5,0.2,1.3c4.6-0.3,5.9,0,5.9,0l-1.4-1.9C-47.2,105.2-51,105-51,105z"/>
		</g>
		<g>
			<path d="M-46.3,102.4c-2.2,0.1-3.3-0.4-3.3-0.4s-0.8-0.8-1.1-1.2c-0.4-0.5-0.1-1.4-0.1-1.4c-0.9,1.3-0.9,3-0.9,3.2
				c0,0.2,0.5,1,0.9,2c1,0.9,4.1,0.1,4.3-0.1c0.2-0.1,2.7-2.3,2.7-2.3l-0.8,0.4C-44.6,102.5-45.1,102.5-46.3,102.4z"/>
		</g>
		<g>
			<g>
				<path d="M-50.5,96.7c-0.3-0.1-3,0.3-3,0.3l-0.3,1.2l0.2,2.3l-1.1,0.5l1.5-0.4l0.1-0.7l2.3-2l1.7,0.7c0,0,0.1,0.2,0.2,0.3
					c0.1,0,0.9-0.6,0.9-0.6S-50.2,96.8-50.5,96.7z"/>
			</g>
			<g>
				<path d="M-53.1,100.7l-1.6,0.4c-0.2,0.2-0.5,2.5-0.7,3.1c1.3,0.1,3.9,0.9,3.9,0.9s0,0,0.5-0.2c-0.1-0.3-1.8-2-1.9-2.3
					S-53.1,100.7-53.1,100.7z"/>
			</g>
		</g>
		<g>
			<path d="M-53,102.6c0.1,0.2,2,2.3,2,2.3s0.5,0,1.1,0.1c-0.4-0.1-0.9-0.3-0.9-0.4c-0.1-0.1-2.1-4.4-2.1-4.4S-53.1,102.4-53,102.6z
				"/>
		</g>
	</g>
	<g class="st6">
		<g>
			<polygon points="-47.2,99.7 -46,98.1 -46.5,96.1 -47.6,96.3 -49.4,97.1 -47.8,98.2 			"/>
		</g>
		<g>
			<path d="M-46.2,102.1l0.5,0.1l1-1.4l0.7-0.6l0,0c0,0-0.4-1.8-1.1-2.8l-1,1L-46.2,102.1z"/>
		</g>
		<g>
			<polygon points="-44.6,100.8 -45.6,102.2 -44.6,102.3 -43.8,101.9 -44.4,100.6 			"/>
		</g>
		<g>
			<path d="M-49.5,101.7c1.1,0.4,3.3,0.4,3.3,0.4l0.1-3.7c0,0-1.2,1.5-1.6,2.3c-0.5,0.1-1.8-0.4-1.8-0.4l-0.7-0.8l-0.4,1
				C-50.7,100.4-49.9,101.4-49.5,101.7z"/>
		</g>
		<g>
			<polygon points="-50.2,99.4 -49.5,100.2 -48.8,99.9 -49.4,99.3 			"/>
		</g>
		<g>
			<path d="M-47.8,100.6c0.1-0.4-0.2-0.8-0.3-0.9l-1.3,0.6C-49.4,100.3-48.3,100.7-47.8,100.6z"/>
		</g>
		<g>
			<polygon points="-47.3,99.8 -47.9,98.3 -47.6,100.3 			"/>
		</g>
		<g>
			<path d="M-48.7,98.8c0,0,0.9,0.9,1,1.5c0-0.7-0.1-1.9-0.2-2.1L-48.7,98.8z"/>
		</g>
		<g>
			<path d="M-47.7,100.4c0,0,0,0.1,0,0.1C-47.7,100.4-47.7,100.4-47.7,100.4z"/>
		</g>
		<g>
			<path d="M-50.8,100.3l0.5-1l0.9,0l0.7,0.6l0.6-0.3c0,0-0.8-1-0.9-1c-0.1,0-0.8,0.2-1.5,0.3C-51.1,99.7-50.8,100.3-50.8,100.3z"/>
		</g>
		<g>
			<polygon points="-49.1,98.5 -48.9,98.8 -49,98.5 -50.7,97.9 -50.6,98.8 			"/>
		</g>
		<g>
			<path d="M-50.8,97.9L-50.8,97.9l-2.2,2l1.2,2.4c0-2.2,1.1-3.4,1.1-3.4L-50.8,97.9z"/>
		</g>
		<g>
			<path d="M-51,104.9c0,0,0.1,0.5,0.2,1.3c4.6-0.3,5.9,0,5.9,0l-1.4-1.9C-47.2,105.1-51,104.9-51,104.9z"/>
		</g>
		<g>
			<path d="M-46.3,102.2c-2.2,0.1-3.3-0.4-3.3-0.4s-0.8-0.8-1.1-1.2c-0.4-0.5-0.1-1.4-0.1-1.4c-0.9,1.3-0.9,3-0.9,3.2
				c0,0.2,0.5,1,0.9,2c1,0.9,4.1,0.1,4.3-0.1c0.2-0.1,2.7-2.3,2.7-2.3l-0.8,0.4C-44.6,102.4-45.1,102.4-46.3,102.2z"/>
		</g>
		<g>
			<g>
				<path d="M-50.5,96.5c-0.3-0.1-3,0.3-3,0.3l-0.3,1.2l0.2,2.3l-1.1,0.5l1.5-0.4l0.1-0.7l2.3-2l1.7,0.7c0,0,0.1,0.2,0.2,0.3
					c0.1,0,0.9-0.6,0.9-0.6S-50.2,96.7-50.5,96.5z"/>
			</g>
			<g>
				<path d="M-53.1,100.6l-1.6,0.4c-0.2,0.2-0.5,2.5-0.7,3.1c1.3,0.1,3.9,0.9,3.9,0.9s0,0,0.5-0.2c-0.1-0.3-1.8-2-1.9-2.3
					S-53.1,100.6-53.1,100.6z"/>
			</g>
		</g>
		<g>
			<path d="M-53,102.5c0.1,0.2,2,2.3,2,2.3s0.5,0,1.1,0.1c-0.4-0.1-0.9-0.3-0.9-0.4c-0.1-0.1-2.1-4.4-2.1-4.4S-53.1,102.2-53,102.5z
				"/>
		</g>
	</g>
	<g>
		<g>
			<polygon points="-47.7,98 -49.1,97 -47.6,96.3 -46.6,96.1 -46.1,97.9 -47.2,99.3 			"/>
			<path class="st0" d="M-46.7,96.2l0.4,1.7l-0.9,1.1l-0.4-1.1l0-0.1l-0.1,0l-1.2-0.8l1.3-0.6L-46.7,96.2 M-46.5,95.9l-1.1,0.3
				l-1.8,0.8l1.6,1l0.6,1.5L-46,98L-46.5,95.9L-46.5,95.9z"/>
		</g>
		<g>
			<path d="M-46,101.9l0.1-3.7l0.8-0.8c0.6,0.9,0.9,2.2,1,2.5l-0.6,0.6l-1,1.4L-46,101.9z"/>
			<path class="st0" d="M-45.2,97.6c0.5,0.8,0.8,1.9,0.9,2.3l-0.6,0.6l-0.9,1.3l-0.1,0l0.1-3.5L-45.2,97.6 M-45.1,97.2l-1,1
				l-0.1,3.8l0.5,0.1l1-1.4l0.7-0.6l0,0C-44,100-44.4,98.2-45.1,97.2L-45.1,97.2z"/>
		</g>
		<g>
			<polygon points="-44.2,100.3 -43.7,100.6 -44,100.1 			"/>
			<polygon class="st0" points="-44,100.1 -44.2,100.3 -43.7,100.6 -44,100.1 			"/>
		</g>
		<g>
			<polygon points="-45.4,102 -44.5,100.8 -44.5,100.7 -44,101.8 -44.6,102 			"/>
			<path class="st0" d="M-44.5,101l0.4,0.7l-0.5,0.2l-0.5,0L-44.5,101 M-44.4,100.5l-0.2,0.2l-1,1.4l1,0.1l0.8-0.3L-44.4,100.5
				L-44.4,100.5z"/>
		</g>
		<g>
			<path d="M-46.4,101.9c-0.4,0-2.2,0-3.1-0.4c-0.3-0.3-0.9-1-1.1-1.2l0.3-0.7l0.6,0.7c0.1,0.1,1.2,0.5,1.8,0.5c0.1,0,0.1,0,0.2,0
				l0.1,0l0,0c0.3-0.5,1-1.5,1.4-1.9L-46.4,101.9z"/>
			<path class="st0" d="M-46.4,99.1l-0.1,2.7c-0.6,0-2.1-0.1-2.9-0.4c-0.3-0.2-0.8-0.8-1-1.2l0.2-0.5l0.5,0.5l0,0l0.1,0
				c0,0,1.1,0.4,1.8,0.4c0.1,0,0.1,0,0.2,0l0.1,0l0.1-0.1C-47.3,100.2-46.8,99.6-46.4,99.1 M-46.2,98.3c0,0-1.2,1.5-1.6,2.3
				c0,0-0.1,0-0.2,0c-0.6,0-1.7-0.4-1.7-0.4l-0.7-0.8l-0.4,1c0,0,0.8,1,1.2,1.3c1,0.4,2.9,0.4,3.2,0.4c0,0,0,0,0,0L-46.2,98.3
				L-46.2,98.3z"/>
		</g>
		<g>
			<polygon points="-50,99.4 -49.5,99.4 -49.1,99.8 -49.5,99.9 			"/>
			<path class="st0" d="M-49.5,99.5l0.3,0.2l-0.2,0.1l-0.3-0.3L-49.5,99.5 M-49.4,99.2l-0.8,0.1l0.7,0.8l0.7-0.3L-49.4,99.2
				L-49.4,99.2z"/>
		</g>
		<g>
			<path d="M-47.9,100.4c-0.3,0-0.8-0.1-1.1-0.2l0.9-0.4C-48.1,99.8-47.9,100.1-47.9,100.4z"/>
			<path class="st0" d="M-48.2,99.9c0.1,0.1,0.1,0.2,0.2,0.4c-0.2,0-0.4-0.1-0.6-0.1L-48.2,99.9 M-48.1,99.6l-1.3,0.6
				c0,0,1,0.4,1.5,0.4c0,0,0.1,0,0.1,0C-47.7,100.1-48,99.7-48.1,99.6L-48.1,99.6z"/>
		</g>
		<g>
			<polygon points="-47.6,99.1 -47.4,99.6 -47.5,99.8 			"/>
			<polygon class="st0" points="-47.9,98.1 -47.6,100.2 -47.3,99.6 -47.9,98.1 			"/>
		</g>
		<g>
			<path d="M-47.9,99.6c-0.2-0.3-0.5-0.7-0.7-0.8l0.5-0.4C-48,98.6-47.9,99.1-47.9,99.6z"/>
			<path class="st0" d="M-48.1,98.6c0,0.1,0,0.3,0.1,0.5c-0.1-0.1-0.2-0.3-0.3-0.4L-48.1,98.6 M-47.9,98.2l-0.8,0.5
				c0,0,0.9,0.9,1,1.5C-47.7,99.5-47.9,98.3-47.9,98.2L-47.9,98.2z"/>
		</g>
		<g>
			<path d="M-47.7,100.2c0,0,0,0.1,0,0.1C-47.7,100.3-47.7,100.3-47.7,100.2z"/>
			<path class="st0" d="M-47.7,100.2c0,0,0,0.1,0,0.1C-47.7,100.3-47.7,100.3-47.7,100.2L-47.7,100.2z"/>
		</g>
		<g>
			<path d="M-50.8,99.8c0-0.2,0-0.5,0.2-0.9c0.2,0,0.4-0.1,0.6-0.1c0.4-0.1,0.7-0.2,0.8-0.2c0.1,0,0.4,0.4,0.8,0.8l-0.3,0.2
				l-0.6-0.5l-1.1,0L-50.8,99.8z"/>
			<path class="st0" d="M-49.2,98.7c0.1,0.1,0.4,0.4,0.6,0.7l-0.1,0.1l-0.5-0.5l-0.1-0.1l-0.1,0l-0.7,0c0.1,0,0.1,0,0.2-0.1
				C-49.6,98.8-49.3,98.8-49.2,98.7 M-49.2,98.5c-0.2,0-0.8,0.2-1.5,0.3c-0.4,0.8-0.2,1.4-0.2,1.4l0.5-1l0.9,0l0.7,0.6l0.6-0.3
				C-48.2,99.5-49,98.5-49.2,98.5C-49.1,98.5-49.2,98.5-49.2,98.5L-49.2,98.5z"/>
		</g>
		<g>
			<polygon points="-50.6,97.9 -49.4,98.3 -50.5,98.6 			"/>
			<path class="st0" d="M-50.4,98.1l0.5,0.2l-0.5,0.1L-50.4,98.1 M-50.7,97.7l0.1,1l1.5-0.3l0.3,0.3l-0.2-0.3L-50.7,97.7L-50.7,97.7
				z"/>
		</g>
		<g>
			<path d="M-52.8,99.8l2-1.7l0,0.7l0,0c0,0-0.9,1-1,2.9L-52.8,99.8z"/>
			<path class="st0" d="M-51,98.3l0,0.3c-0.2,0.3-0.8,1.1-1,2.6l-0.7-1.4L-51,98.3 M-50.8,97.8L-50.8,97.8l-2.2,2l1.2,2.4
				c0-2.2,1.1-3.4,1.1-3.4L-50.8,97.8L-50.8,97.8z"/>
		</g>
		<g>
			<path d="M-50.7,105.9c-0.1-0.5-0.1-0.8-0.1-1c0.2,0,0.6,0,1,0c1.3,0,2.8-0.1,3.5-0.6l1.2,1.5c-0.3,0-1-0.1-2.1-0.1
				C-48.2,105.8-49.4,105.8-50.7,105.9z"/>
			<path class="st0" d="M-46.4,104.5l0.9,1.2c-0.4,0-1-0.1-1.8-0.1c-1,0-2.1,0-3.4,0.1c0-0.3-0.1-0.6-0.1-0.8c0.2,0,0.5,0,0.9,0
				C-48.1,105-47,104.9-46.4,104.5 M-46.3,104.2c-0.6,0.5-2.3,0.6-3.5,0.6c-0.7,0-1.2,0-1.2,0s0.1,0.5,0.2,1.3
				c1.5-0.1,2.7-0.1,3.6-0.1c1.8,0,2.3,0.1,2.3,0.1L-46.3,104.2L-46.3,104.2z"/>
		</g>
		<g>
			<path d="M-49.2,104.6c-0.7,0-1.2-0.1-1.5-0.4c-0.1-0.3-0.3-0.7-0.5-1c-0.2-0.4-0.4-0.8-0.4-0.9l0-0.1c0-1,0.2-1.8,0.5-2.4
				c0,0.3,0.1,0.6,0.2,0.9c0.4,0.4,1.1,1.2,1.1,1.2c0.1,0,1.1,0.4,2.8,0.4c0.2,0,0.4,0,0.6,0c1.1,0.1,1.7,0.1,1.7,0.1l0.1-0.1
				c-0.9,0.8-2,1.7-2.1,1.8C-46.7,104.2-48,104.6-49.2,104.6z"/>
			<path class="st0" d="M-51.1,100.2c0,0.2,0.1,0.3,0.2,0.5c0.4,0.4,1.1,1.2,1.1,1.2l0,0l0,0c0,0,1,0.4,2.8,0.4c0.2,0,0.4,0,0.6,0
				c0.7,0.1,1.2,0.1,1.4,0.1c-0.9,0.8-1.6,1.4-1.8,1.5l-0.1,0l0,0c-0.2,0.1-1.4,0.4-2.5,0.4c-0.7,0-1.1-0.1-1.4-0.3
				c-0.2-0.4-0.3-0.7-0.5-1c-0.2-0.4-0.4-0.8-0.4-0.9c0,0,0-0.1,0-0.1C-51.4,101.4-51.3,100.8-51.1,100.2 M-50.8,99.1
				c-0.9,1.3-0.9,3-0.9,3.2c0,0.2,0.5,1,0.9,2c0.3,0.3,1,0.4,1.6,0.4c1.2,0,2.6-0.4,2.7-0.5c0.2-0.1,2.7-2.3,2.7-2.3l-0.8,0.4
				c0,0-0.5,0-1.7-0.1c-0.2,0-0.4,0-0.6,0c-1.8,0-2.8-0.4-2.8-0.4s-0.8-0.8-1.1-1.2C-51.1,100-50.8,99.1-50.8,99.1L-50.8,99.1z"/>
		</g>
		<g>
			<g>
				<path d="M-53.6,98l0.3-1.1c0.4-0.1,2-0.3,2.6-0.3c0.1,0,0.2,0,0.2,0c0.2,0.1,1.6,1,2.4,1.6c-0.2,0.2-0.5,0.3-0.6,0.4
					c-0.1-0.1-0.1-0.2-0.1-0.2l-1.9-0.8l-2.4,2.1l-0.1,0.7l-0.2,0.1L-53.6,98z"/>
				<path class="st0" d="M-50.7,96.6c0.1,0,0.1,0,0.1,0c0,0,0,0,0,0c0.2,0.1,1.3,0.9,2.2,1.5c-0.1,0.1-0.2,0.2-0.3,0.2
					c0-0.1-0.1-0.1-0.1-0.1l0-0.1l-0.1,0l-1.7-0.7l-0.1-0.1l-0.1,0.1l-2.3,2l-0.1,0.1l0,0.1l0,0.5l-0.1-2.1l0.3-1
					C-52.7,96.9-51.3,96.6-50.7,96.6 M-50.7,96.4c-0.7,0-2.7,0.4-2.7,0.4l-0.3,1.2l0.2,2.3l-1.1,0.5l1.5-0.4l0.1-0.7l2.3-2l1.7,0.7
					c0,0,0.1,0.2,0.2,0.3c0.1,0,0.9-0.6,0.9-0.6s-2.3-1.5-2.5-1.7C-50.5,96.4-50.6,96.4-50.7,96.4L-50.7,96.4z"/>
			</g>
			<g>
				<path d="M-51.6,104.8c-0.3-0.1-2.5-0.8-3.7-0.9c0-0.2,0.1-0.5,0.1-0.8c0.1-0.7,0.3-2,0.5-2.1l1.4-0.3c0,0.5,0,1.7,0.1,1.9
					c0.1,0.1,0.4,0.5,0.9,1c0.3,0.4,0.8,0.9,1,1.1L-51.6,104.8z"/>
				<path class="st0" d="M-53.4,100.8c0,0.6,0,1.6,0.1,1.8c0.1,0.1,0.3,0.4,0.9,1c0.3,0.3,0.7,0.7,0.9,1l-0.1,0
					c-0.4-0.1-2.4-0.7-3.6-0.9c0-0.2,0.1-0.4,0.1-0.7c0.1-0.6,0.3-1.7,0.4-2L-53.4,100.8 M-53.1,100.5l-1.6,0.4
					c-0.2,0.2-0.5,2.5-0.7,3.1c1.3,0.1,3.9,0.9,3.9,0.9s0,0,0.5-0.2c-0.1-0.3-1.8-2-1.9-2.3C-53.2,102.2-53.1,100.5-53.1,100.5
					L-53.1,100.5z"/>
			</g>
		</g>
		<g>
			<path d="M-51,104.5c-0.8-0.9-1.8-2-1.9-2.2c0-0.1,0-1,0-1.9C-52.1,102.1-51,104.4-51,104.5c0-0.1,0.1,0,0.1,0
				C-50.9,104.5-51,104.5-51,104.5z"/>
			<path class="st0" d="M-52.8,101c0.7,1.5,1.1,2.4,1.4,2.9c-0.7-0.7-1.3-1.4-1.4-1.6C-52.8,102.2-52.8,101.6-52.8,101 M-53,99.9
				c0,0-0.1,2.2,0,2.4c0.1,0.2,2,2.3,2,2.3s0.5,0,1.1,0.1c-0.4-0.1-0.9-0.3-0.9-0.4C-50.9,104.3-53,99.9-53,99.9L-53,99.9z"/>
		</g>
	</g>
</g>
</svg>
